<?xml version="1.0" encoding="utf-8"?>
<!-- Generator: Adobe Illustrator 15.1.0, SVG Export Plug-In . SVG Version: 6.00 Build 0)  -->
<!DOCTYPE svg PUBLIC "-//W3C//DTD SVG 1.1//EN" "http://www.w3.org/Graphics/SVG/1.1/DTD/svg11.dtd">
<svg version="1.1" xmlns="http://www.w3.org/2000/svg" xmlns:xlink="http://www.w3.org/1999/xlink" x="0px" y="0px"
	 width="517.941px" height="616.92px" viewBox="0 0 517.941 616.92" enable-background="new 0 0 517.941 616.92"
	 xml:space="preserve">
<g id="Layer_29" display="none">
	
		<circle display="inline" opacity="0.8" fill="#FFFFFF" stroke="#03468E" stroke-miterlimit="10" enable-background="new    " cx="329.137" cy="76" r="8.667"/>
	<g display="inline">
		<path d="M329.216,80.166V72.81l-1.212,0.973v-1.008l1.188-0.96h0.974v8.352L329.216,80.166L329.216,80.166z"/>
	</g>
	
		<circle display="inline" opacity="0.8" fill="#FFFFFF" stroke="#03468E" stroke-miterlimit="10" enable-background="new    " cx="502.25" cy="274.609" r="8.667"/>
	<g display="inline">
		<path d="M502.208,271.251c-0.272,0.009-0.466,0.122-0.582,0.343c-0.116,0.22-0.174,0.554-0.174,1.002v0.071l-0.948-0.168v-0.048
			c0-0.319,0.032-0.607,0.096-0.864c0.064-0.256,0.166-0.476,0.308-0.659c0.14-0.185,0.318-0.326,0.54-0.427
			c0.22-0.1,0.48-0.149,0.786-0.149c0.312,0,0.574,0.044,0.792,0.132c0.216,0.088,0.392,0.212,0.526,0.372
			c0.136,0.16,0.234,0.354,0.294,0.582c0.062,0.228,0.09,0.482,0.09,0.762c0,0.664-0.15,1.305-0.454,1.92l-1.872,3.78h2.268v0.876
			h-3.348v-0.828l2.172-4.332c0.111-0.216,0.182-0.443,0.21-0.684c0.027-0.24,0.042-0.48,0.042-0.721
			c0-0.111-0.008-0.226-0.024-0.342c-0.016-0.115-0.048-0.22-0.096-0.312c-0.048-0.092-0.122-0.166-0.222-0.223
			C502.51,271.279,502.376,271.251,502.208,271.251z"/>
	</g>
	
		<circle display="inline" opacity="0.8" fill="#FFFFFF" stroke="#03468E" stroke-miterlimit="10" enable-background="new    " cx="267.971" cy="403.001" r="8.667"/>
	<g display="inline">
		<path d="M269.585,405.45c0,0.319-0.048,0.594-0.146,0.822c-0.096,0.229-0.222,0.413-0.377,0.559
			c-0.156,0.143-0.336,0.25-0.541,0.318c-0.203,0.065-0.422,0.102-0.652,0.102c-0.328,0-0.604-0.049-0.822-0.145
			c-0.221-0.097-0.396-0.229-0.527-0.396c-0.133-0.167-0.223-0.369-0.271-0.604c-0.048-0.236-0.063-0.498-0.048-0.785l0.947-0.134
			c-0.041,0.359-0.002,0.648,0.113,0.863c0.116,0.217,0.326,0.324,0.631,0.324c0.207,0,0.385-0.066,0.533-0.197
			c0.147-0.133,0.223-0.36,0.223-0.688v-1.263c0-0.336-0.065-0.575-0.197-0.725c-0.133-0.148-0.352-0.223-0.654-0.223h-0.372v-0.828
			h0.396c0.297,0,0.51-0.068,0.638-0.203c0.128-0.137,0.19-0.365,0.19-0.684v-1.068c0-0.104-0.01-0.209-0.028-0.313
			c-0.021-0.104-0.056-0.194-0.103-0.274c-0.049-0.08-0.117-0.146-0.205-0.193c-0.088-0.047-0.203-0.072-0.348-0.072
			c-0.279,0-0.486,0.107-0.617,0.318c-0.133,0.213-0.199,0.494-0.199,0.846l-0.946-0.131c0.008-0.271,0.052-0.524,0.132-0.762
			c0.079-0.236,0.193-0.441,0.342-0.613c0.147-0.172,0.334-0.307,0.559-0.408c0.225-0.1,0.488-0.147,0.791-0.147
			c0.297,0,0.545,0.045,0.744,0.137c0.2,0.092,0.362,0.217,0.486,0.373s0.212,0.338,0.264,0.545
			c0.053,0.209,0.078,0.424,0.078,0.648v0.852c0,0.16-0.006,0.314-0.018,0.463c-0.014,0.148-0.04,0.285-0.084,0.414
			c-0.045,0.127-0.112,0.246-0.204,0.354c-0.093,0.106-0.224,0.207-0.392,0.295v0.035c0.16,0.071,0.287,0.153,0.379,0.246
			c0.092,0.092,0.162,0.198,0.209,0.323c0.05,0.123,0.078,0.265,0.092,0.42c0.012,0.156,0.018,0.33,0.018,0.521L269.585,405.45z"/>
	</g>
	
		<circle display="inline" opacity="0.8" fill="#FFFFFF" stroke="#03468E" stroke-miterlimit="10" enable-background="new    " cx="15.583" cy="416.001" r="8.667"/>
	<g display="inline">
		<path d="M16.934,418.847v1.32h-0.947v-1.32h-2.46v-0.852l1.752-6.18h0.936l-1.764,6.18h1.536v-2.316h0.947v2.316h0.589v0.852
			H16.934z"/>
	</g>
	
		<circle display="inline" opacity="0.8" fill="#FFFFFF" stroke="#03468E" stroke-miterlimit="10" enable-background="new    " cx="436.917" cy="416.001" r="8.667"/>
	<g display="inline">
		<path d="M436.829,420.251c-0.328,0-0.602-0.051-0.816-0.15c-0.215-0.099-0.39-0.235-0.521-0.407s-0.229-0.375-0.288-0.611
			c-0.062-0.236-0.095-0.49-0.104-0.762l0.948-0.133c0,0.176,0.008,0.336,0.024,0.479c0.016,0.144,0.052,0.269,0.106,0.371
			c0.058,0.104,0.138,0.186,0.24,0.246c0.104,0.06,0.248,0.09,0.432,0.09c0.208,0,0.381-0.066,0.518-0.197
			c0.136-0.133,0.212-0.36,0.228-0.688v-2.16c0-0.473-0.23-0.709-0.694-0.709c-0.186,0-0.342,0.043-0.47,0.127
			s-0.224,0.197-0.288,0.342h-0.826v-4.271h3.238v0.852h-2.398v2.521h0.06c0.12-0.119,0.27-0.211,0.444-0.271
			c0.176-0.061,0.354-0.09,0.54-0.09c0.472,0,0.81,0.131,1.014,0.395c0.204,0.267,0.307,0.589,0.307,0.974v2.256
			c0,0.32-0.044,0.594-0.133,0.822c-0.088,0.228-0.21,0.414-0.364,0.559c-0.156,0.143-0.337,0.25-0.54,0.318
			C437.279,420.216,437.06,420.251,436.829,420.251z"/>
	</g>
	
		<circle display="inline" opacity="0.8" fill="#FFFFFF" stroke="#03468E" stroke-miterlimit="10" enable-background="new    " cx="15.583" cy="452.461" r="8.667"/>
	<g display="inline">
		<path d="M15.243,451.958c0.168-0.127,0.376-0.191,0.624-0.191c0.264,0,0.481,0.043,0.653,0.127
			c0.173,0.085,0.311,0.197,0.414,0.343c0.104,0.145,0.179,0.313,0.223,0.506c0.044,0.19,0.065,0.393,0.065,0.602v1.756
			c0,0.265-0.046,0.498-0.138,0.697c-0.092,0.201-0.216,0.369-0.372,0.506c-0.156,0.138-0.336,0.238-0.54,0.308
			c-0.204,0.068-0.418,0.102-0.642,0.102c-0.225,0-0.438-0.033-0.643-0.102c-0.205-0.069-0.384-0.17-0.54-0.308
			c-0.155-0.135-0.279-0.303-0.372-0.504c-0.092-0.199-0.138-0.432-0.138-0.694v-1.394c0-0.359,0.024-0.66,0.072-0.9
			c0.048-0.237,0.107-0.45,0.18-0.635l1.548-3.899h0.96l-1.392,3.647L15.243,451.958z M16.275,453.302
			c0-0.207-0.068-0.369-0.204-0.483c-0.137-0.117-0.313-0.177-0.528-0.177c-0.144,0-0.264,0.027-0.36,0.078
			c-0.096,0.054-0.174,0.121-0.233,0.205c-0.061,0.084-0.103,0.178-0.126,0.281c-0.024,0.104-0.036,0.209-0.036,0.313v1.656
			c0,0.207,0.069,0.369,0.21,0.486c0.14,0.115,0.318,0.174,0.534,0.174c0.216,0,0.394-0.059,0.534-0.174
			c0.14-0.117,0.21-0.279,0.21-0.486L16.275,453.302L16.275,453.302z"/>
	</g>
	
		<circle display="inline" opacity="0.8" fill="#FFFFFF" stroke="#03468E" stroke-miterlimit="10" enable-background="new    " cx="78.583" cy="452.461" r="8.667"/>
	<g display="inline">
		<path d="M78.098,456.626h-0.912l2.101-7.5H77.63v0.996h-0.828v-1.848h3.444v0.778L78.098,456.626z"/>
	</g>
	
		<circle display="inline" opacity="0.8" fill="#FFFFFF" stroke="#03468E" stroke-miterlimit="10" enable-background="new    " cx="104.583" cy="452.461" r="8.667"/>
	<g display="inline">
		<path d="M106.222,450.938c0,0.306-0.06,0.564-0.18,0.779c-0.12,0.217-0.276,0.394-0.468,0.529
			c0.191,0.135,0.348,0.313,0.468,0.533c0.12,0.22,0.18,0.481,0.18,0.787v1.534c0,0.265-0.046,0.496-0.138,0.695
			c-0.092,0.201-0.216,0.369-0.372,0.504c-0.156,0.137-0.336,0.238-0.54,0.308c-0.204,0.068-0.418,0.102-0.642,0.102
			c-0.225,0-0.438-0.033-0.643-0.102c-0.205-0.069-0.384-0.171-0.54-0.308c-0.155-0.135-0.279-0.303-0.372-0.504
			c-0.092-0.199-0.138-0.432-0.138-0.695v-1.534c0-0.306,0.058-0.566,0.174-0.787c0.116-0.222,0.274-0.398,0.475-0.533
			c-0.2-0.137-0.358-0.313-0.475-0.529c-0.116-0.215-0.174-0.475-0.174-0.779v-1.104c0-0.264,0.046-0.498,0.138-0.703
			c0.093-0.203,0.217-0.373,0.372-0.51c0.156-0.135,0.336-0.24,0.54-0.313c0.204-0.069,0.418-0.106,0.643-0.106
			c0.224,0,0.438,0.037,0.642,0.106c0.204,0.072,0.384,0.179,0.54,0.313c0.156,0.137,0.28,0.307,0.372,0.51
			c0.092,0.205,0.138,0.439,0.138,0.703V450.938z M105.275,449.763c0-0.209-0.07-0.375-0.21-0.498
			c-0.141-0.125-0.318-0.186-0.534-0.186c-0.216,0-0.395,0.061-0.534,0.186c-0.141,0.123-0.21,0.289-0.21,0.498v1.367
			c0,0.209,0.069,0.377,0.21,0.504c0.14,0.129,0.318,0.193,0.534,0.193c0.216,0,0.394-0.064,0.534-0.193
			c0.14-0.127,0.21-0.295,0.21-0.504V449.763z M105.275,453.351c0-0.209-0.07-0.381-0.21-0.516
			c-0.141-0.137-0.318-0.205-0.534-0.205c-0.216,0-0.395,0.068-0.534,0.205c-0.141,0.135-0.21,0.307-0.21,0.516v1.824
			c0,0.207,0.069,0.369,0.21,0.486c0.14,0.115,0.318,0.174,0.534,0.174c0.216,0,0.394-0.059,0.534-0.174
			c0.14-0.117,0.21-0.279,0.21-0.486V453.351z"/>
	</g>
	
		<circle display="inline" opacity="0.8" fill="#FFFFFF" stroke="#03468E" stroke-miterlimit="10" enable-background="new    " cx="160.583" cy="452.461" r="8.667"/>
	<g display="inline">
		<path d="M160.819,452.931c-0.168,0.127-0.377,0.191-0.624,0.191c-0.265,0-0.482-0.041-0.654-0.125s-0.311-0.199-0.414-0.342
			c-0.104-0.146-0.178-0.313-0.222-0.504c-0.044-0.193-0.066-0.394-0.066-0.603v-1.752c0-0.264,0.046-0.496,0.138-0.695
			c0.093-0.198,0.217-0.366,0.372-0.504c0.156-0.137,0.336-0.237,0.54-0.307c0.204-0.069,0.418-0.102,0.643-0.102
			c0.535,0,0.952,0.137,1.248,0.407c0.296,0.271,0.443,0.672,0.443,1.199v1.394c0,0.358-0.023,0.659-0.071,0.899
			c-0.049,0.24-0.108,0.451-0.181,0.635l-1.548,3.9h-0.96l1.392-3.66L160.819,452.931z M159.787,451.599
			c0,0.207,0.067,0.373,0.204,0.498c0.136,0.123,0.312,0.187,0.527,0.187c0.145,0,0.265-0.027,0.36-0.084
			c0.096-0.056,0.174-0.125,0.234-0.209s0.102-0.183,0.126-0.289c0.023-0.107,0.036-0.213,0.036-0.318v-1.656
			c0-0.207-0.07-0.368-0.21-0.483c-0.141-0.117-0.318-0.174-0.534-0.174c-0.216,0-0.395,0.057-0.534,0.174
			c-0.141,0.115-0.21,0.276-0.21,0.483L159.787,451.599L159.787,451.599z"/>
	</g>
	
		<circle display="inline" opacity="0.8" fill="#FFFFFF" stroke="#03468E" stroke-miterlimit="10" enable-background="new    " cx="228.583" cy="462.461" r="8.667"/>
	<g display="inline">
		<path d="M226.103,466.626v-7.354l-1.212,0.973v-1.008l1.188-0.961h0.973v8.352L226.103,466.626L226.103,466.626z"/>
		<path d="M232.222,465.103c0,0.265-0.046,0.496-0.138,0.695c-0.092,0.201-0.216,0.369-0.372,0.504
			c-0.156,0.138-0.336,0.238-0.54,0.308c-0.204,0.068-0.418,0.102-0.642,0.102c-0.225,0-0.438-0.033-0.643-0.102
			c-0.205-0.069-0.384-0.17-0.54-0.308c-0.155-0.135-0.279-0.303-0.372-0.504c-0.092-0.199-0.138-0.432-0.138-0.695v-5.268
			c0-0.264,0.046-0.498,0.138-0.703c0.093-0.203,0.217-0.373,0.372-0.51c0.156-0.135,0.336-0.24,0.54-0.313
			c0.204-0.069,0.418-0.106,0.643-0.106c0.496,0,0.901,0.141,1.218,0.42c0.315,0.281,0.474,0.684,0.474,1.213V465.103
			L232.222,465.103z M231.275,459.798c0-0.207-0.07-0.375-0.21-0.504c-0.141-0.127-0.318-0.191-0.534-0.191
			c-0.216,0-0.395,0.064-0.534,0.191c-0.141,0.129-0.21,0.297-0.21,0.504v5.34c0,0.209,0.069,0.377,0.21,0.504
			c0.14,0.13,0.318,0.193,0.534,0.193c0.216,0,0.394-0.063,0.534-0.193c0.14-0.127,0.21-0.295,0.21-0.504V459.798z"/>
	</g>
	
		<circle display="inline" opacity="0.8" fill="#FFFFFF" stroke="#03468E" stroke-miterlimit="10" enable-background="new    " cx="260.583" cy="486.461" r="8.667"/>
	<g display="inline">
		<path d="M258.103,490.626v-7.354l-1.212,0.973v-1.008l1.188-0.961h0.973v8.352L258.103,490.626L258.103,490.626z"/>
		<path d="M262.663,490.626v-7.354l-1.212,0.973v-1.008l1.188-0.961h0.973v8.352L262.663,490.626L262.663,490.626z"/>
	</g>
	
		<circle display="inline" opacity="0.8" fill="#FFFFFF" stroke="#03468E" stroke-miterlimit="10" enable-background="new    " cx="291.583" cy="462.461" r="8.667"/>
	<g display="inline">
		<path d="M289.104,466.626v-7.354l-1.213,0.973v-1.008l1.188-0.961h0.973v8.352L289.104,466.626L289.104,466.626z"/>
		<path d="M293.542,459.103c-0.272,0.009-0.466,0.121-0.582,0.343c-0.116,0.221-0.174,0.555-0.174,1.002v0.071l-0.948-0.168v-0.049
			c0-0.317,0.032-0.606,0.096-0.862c0.064-0.257,0.166-0.478,0.308-0.66c0.14-0.185,0.319-0.326,0.54-0.427
			c0.22-0.1,0.48-0.149,0.785-0.149c0.313,0,0.576,0.045,0.793,0.133c0.216,0.088,0.392,0.211,0.527,0.371
			c0.135,0.16,0.233,0.354,0.293,0.582c0.062,0.229,0.09,0.482,0.09,0.762c0,0.664-0.15,1.306-0.455,1.92l-1.871,3.781h2.268v0.875
			h-3.348v-0.828l2.172-4.332c0.111-0.215,0.182-0.442,0.21-0.684c0.026-0.24,0.042-0.48,0.042-0.721
			c0-0.111-0.008-0.226-0.023-0.343c-0.017-0.114-0.049-0.219-0.097-0.311s-0.122-0.166-0.222-0.224
			C293.844,459.13,293.71,459.103,293.542,459.103z"/>
	</g>
	
		<circle display="inline" opacity="0.8" fill="#FFFFFF" stroke="#03468E" stroke-miterlimit="10" enable-background="new    " cx="390.583" cy="453.461" r="8.667"/>
	<g display="inline">
		<path d="M388.104,457.626v-7.354l-1.213,0.973v-1.008l1.188-0.961h0.973v8.352L388.104,457.626L388.104,457.626z"/>
		<path d="M394.199,455.911c0,0.32-0.049,0.594-0.145,0.822c-0.097,0.227-0.223,0.411-0.379,0.557
			c-0.156,0.145-0.336,0.25-0.539,0.318c-0.205,0.067-0.423,0.102-0.654,0.102c-0.328,0-0.603-0.047-0.821-0.143
			c-0.222-0.099-0.396-0.229-0.528-0.396c-0.132-0.167-0.222-0.371-0.27-0.604c-0.049-0.236-0.064-0.498-0.049-0.787l0.947-0.133
			c-0.039,0.36-0.002,0.647,0.114,0.864c0.116,0.215,0.326,0.324,0.63,0.324c0.208,0,0.387-0.066,0.534-0.199
			c0.147-0.131,0.222-0.36,0.222-0.688v-1.261c0-0.336-0.064-0.577-0.197-0.727c-0.133-0.146-0.351-0.221-0.653-0.221h-0.372v-0.828
			h0.396c0.295,0,0.508-0.068,0.637-0.205c0.128-0.135,0.191-0.363,0.191-0.684v-1.068c0-0.104-0.011-0.207-0.029-0.313
			c-0.021-0.104-0.055-0.194-0.104-0.274c-0.048-0.08-0.115-0.146-0.204-0.191c-0.088-0.049-0.204-0.071-0.348-0.071
			c-0.28,0-0.486,0.104-0.618,0.317c-0.132,0.211-0.197,0.494-0.197,0.846l-0.947-0.133c0.008-0.271,0.052-0.524,0.132-0.762
			c0.079-0.236,0.192-0.439,0.342-0.611c0.147-0.172,0.334-0.309,0.558-0.407c0.226-0.101,0.488-0.15,0.793-0.15
			c0.295,0,0.543,0.047,0.743,0.139s0.362,0.215,0.486,0.371s0.212,0.338,0.264,0.547c0.052,0.207,0.078,0.424,0.078,0.648v0.852
			c0,0.16-0.006,0.314-0.019,0.461c-0.012,0.148-0.039,0.287-0.084,0.414c-0.045,0.129-0.111,0.246-0.203,0.355
			c-0.094,0.106-0.223,0.205-0.391,0.293v0.037c0.159,0.069,0.285,0.151,0.377,0.246c0.092,0.092,0.162,0.198,0.211,0.321
			c0.049,0.125,0.078,0.267,0.09,0.42c0.013,0.156,0.019,0.33,0.019,0.523L394.199,455.911z"/>
	</g>
	
		<circle display="inline" opacity="0.8" fill="#FFFFFF" stroke="#03468E" stroke-miterlimit="10" enable-background="new    " cx="15.583" cy="489.461" r="8.667"/>
	<g display="inline">
		<path d="M13.103,493.626v-7.354l-1.212,0.973v-1.008l1.188-0.961h0.973v8.352L13.103,493.626L13.103,493.626z"/>
		<path d="M18.934,492.306v1.32h-0.947v-1.32h-2.46v-0.852l1.752-6.18h0.936l-1.764,6.18h1.536v-2.316h0.947v2.316h0.589v0.852
			H18.934z"/>
	</g>
	
		<circle display="inline" opacity="0.8" fill="#FFFFFF" stroke="#03468E" stroke-miterlimit="10" enable-background="new    " cx="242.137" cy="526.544" r="8.667"/>
	<g display="inline">
		<path d="M239.657,530.71v-7.356l-1.212,0.973v-1.008l1.188-0.959h0.973v8.352L239.657,530.71L239.657,530.71z"/>
		<path d="M244.048,530.794c-0.328,0-0.601-0.051-0.816-0.15c-0.215-0.099-0.39-0.235-0.521-0.407s-0.229-0.375-0.288-0.611
			c-0.061-0.236-0.095-0.49-0.103-0.762l0.948-0.134c0,0.177,0.008,0.337,0.024,0.48c0.016,0.143,0.052,0.268,0.107,0.371
			c0.057,0.104,0.137,0.186,0.24,0.246c0.103,0.06,0.248,0.09,0.432,0.09c0.208,0,0.38-0.066,0.517-0.197
			c0.136-0.133,0.212-0.361,0.228-0.688v-2.16c0-0.474-0.231-0.709-0.695-0.709c-0.185,0-0.341,0.043-0.469,0.127
			s-0.224,0.197-0.288,0.342h-0.827v-4.271h3.239v0.853h-2.399v2.52h0.06c0.12-0.118,0.269-0.211,0.444-0.27
			c0.176-0.062,0.355-0.09,0.54-0.09c0.472,0,0.81,0.131,1.014,0.395c0.204,0.267,0.306,0.588,0.306,0.974v2.256
			c0,0.319-0.044,0.594-0.132,0.822c-0.088,0.228-0.21,0.413-0.365,0.559c-0.156,0.143-0.337,0.25-0.54,0.318
			C244.499,530.759,244.28,530.794,244.048,530.794z"/>
	</g>
	
		<circle display="inline" opacity="0.8" fill="#FFFFFF" stroke="#03468E" stroke-miterlimit="10" enable-background="new    " cx="501.803" cy="488.627" r="8.667"/>
	<g display="inline">
		<path d="M499.323,492.792v-7.355l-1.212,0.974v-1.008l1.188-0.961h0.973v8.352L499.323,492.792L499.323,492.792z"/>
		<path d="M503.462,488.124c0.168-0.127,0.376-0.191,0.624-0.191c0.264,0,0.481,0.043,0.653,0.127
			c0.173,0.084,0.311,0.197,0.414,0.343c0.104,0.145,0.179,0.313,0.223,0.506c0.044,0.19,0.065,0.393,0.065,0.602v1.756
			c0,0.265-0.047,0.498-0.139,0.697c-0.092,0.201-0.216,0.369-0.372,0.506c-0.155,0.138-0.336,0.238-0.54,0.308
			c-0.204,0.068-0.418,0.102-0.642,0.102c-0.225,0-0.438-0.033-0.643-0.102c-0.205-0.069-0.385-0.17-0.54-0.308
			c-0.155-0.135-0.279-0.303-0.372-0.504c-0.093-0.199-0.139-0.432-0.139-0.695v-1.393c0-0.359,0.024-0.66,0.072-0.9
			c0.048-0.237,0.107-0.45,0.18-0.635l1.548-3.899h0.961l-1.393,3.647L503.462,488.124z M504.495,489.468
			c0-0.207-0.068-0.369-0.204-0.483c-0.137-0.117-0.313-0.177-0.528-0.177c-0.144,0-0.264,0.027-0.359,0.078
			c-0.097,0.054-0.175,0.121-0.233,0.205c-0.061,0.084-0.103,0.178-0.126,0.281c-0.024,0.104-0.036,0.209-0.036,0.313v1.656
			c0,0.207,0.069,0.369,0.21,0.486c0.141,0.115,0.318,0.174,0.534,0.174s0.394-0.059,0.534-0.174c0.14-0.117,0.21-0.279,0.21-0.486
			L504.495,489.468L504.495,489.468z"/>
	</g>
	
		<circle display="inline" opacity="0.8" fill="#FFFFFF" stroke="#03468E" stroke-miterlimit="10" enable-background="new    " cx="216.137" cy="555.544" r="8.667"/>
	<g display="inline">
		<path d="M213.656,559.71v-7.356l-1.212,0.973v-1.008l1.188-0.959h0.973v8.352L213.656,559.71L213.656,559.71z"/>
		<path d="M217.651,559.71h-0.912l2.101-7.5h-1.656v0.996h-0.828v-1.848h3.444v0.778L217.651,559.71z"/>
	</g>
	
		<circle display="inline" opacity="0.8" fill="#FFFFFF" stroke="#03468E" stroke-miterlimit="10" enable-background="new    " cx="295.137" cy="555.544" r="8.667"/>
	<g display="inline">
		<path d="M292.656,559.71v-7.356l-1.211,0.973v-1.008l1.188-0.959h0.973v8.352L292.656,559.71L292.656,559.71z"/>
		<path d="M298.775,554.021c0,0.305-0.06,0.563-0.18,0.78c-0.119,0.215-0.275,0.394-0.468,0.527c0.19,0.137,0.349,0.313,0.468,0.535
			c0.12,0.219,0.18,0.479,0.18,0.784v1.535c0,0.267-0.045,0.496-0.137,0.697c-0.093,0.199-0.218,0.367-0.373,0.504
			c-0.156,0.137-0.336,0.238-0.539,0.308c-0.205,0.065-0.418,0.102-0.644,0.102s-0.438-0.035-0.644-0.102
			c-0.203-0.068-0.383-0.171-0.539-0.308c-0.155-0.137-0.278-0.305-0.373-0.504c-0.092-0.201-0.137-0.432-0.137-0.697v-1.535
			c0-0.305,0.058-0.565,0.174-0.784c0.115-0.222,0.273-0.398,0.476-0.535c-0.201-0.135-0.358-0.313-0.476-0.527
			c-0.116-0.217-0.174-0.477-0.174-0.78v-1.104c0-0.264,0.045-0.498,0.137-0.701c0.095-0.205,0.218-0.375,0.373-0.51
			c0.156-0.137,0.336-0.24,0.539-0.313c0.205-0.071,0.418-0.106,0.644-0.106s0.438,0.035,0.644,0.106
			c0.203,0.072,0.383,0.177,0.539,0.313c0.155,0.135,0.28,0.305,0.373,0.51c0.092,0.203,0.137,0.438,0.137,0.701V554.021z
			 M297.828,552.845c0-0.207-0.07-0.373-0.209-0.498c-0.141-0.123-0.318-0.186-0.535-0.186c-0.215,0-0.395,0.063-0.533,0.186
			c-0.141,0.125-0.211,0.291-0.211,0.498v1.369c0,0.207,0.07,0.375,0.211,0.504c0.139,0.127,0.318,0.191,0.533,0.191
			c0.217,0,0.395-0.064,0.535-0.191c0.139-0.129,0.209-0.297,0.209-0.504V552.845z M297.828,556.433c0-0.207-0.07-0.379-0.209-0.516
			c-0.141-0.135-0.318-0.203-0.535-0.203c-0.215,0-0.395,0.068-0.533,0.203c-0.141,0.137-0.211,0.309-0.211,0.516v1.824
			c0,0.209,0.07,0.371,0.211,0.486c0.139,0.117,0.318,0.174,0.533,0.174c0.217,0,0.395-0.057,0.535-0.174
			c0.139-0.115,0.209-0.277,0.209-0.486V556.433z"/>
	</g>
	
		<circle display="inline" opacity="0.8" fill="#FFFFFF" stroke="#03468E" stroke-miterlimit="10" enable-background="new    " cx="445.25" cy="554.961" r="8.667"/>
	<g display="inline">
		<path d="M442.769,559.126v-7.354l-1.213,0.973v-1.008l1.188-0.961h0.973v8.352L442.769,559.126L442.769,559.126z"/>
		<path d="M447.484,555.431c-0.168,0.127-0.377,0.191-0.623,0.191c-0.267,0-0.482-0.041-0.654-0.125s-0.311-0.199-0.414-0.342
			c-0.104-0.146-0.178-0.313-0.223-0.504c-0.043-0.193-0.066-0.394-0.066-0.603v-1.752c0-0.264,0.047-0.496,0.139-0.695
			c0.093-0.198,0.218-0.366,0.371-0.504c0.156-0.137,0.336-0.237,0.541-0.307c0.203-0.068,0.418-0.102,0.644-0.102
			c0.535,0,0.951,0.137,1.248,0.407c0.295,0.271,0.442,0.672,0.442,1.199v1.394c0,0.358-0.022,0.659-0.071,0.899
			c-0.05,0.24-0.107,0.451-0.181,0.635l-1.549,3.9h-0.959l1.391-3.66L447.484,555.431z M446.453,554.099
			c0,0.207,0.065,0.373,0.203,0.498c0.137,0.123,0.313,0.187,0.526,0.187c0.146,0,0.267-0.027,0.361-0.084
			c0.096-0.056,0.174-0.125,0.234-0.209c0.059-0.084,0.102-0.183,0.125-0.289c0.022-0.107,0.037-0.213,0.037-0.318v-1.656
			c0-0.207-0.07-0.368-0.212-0.483c-0.141-0.117-0.317-0.174-0.532-0.174c-0.218,0-0.396,0.057-0.535,0.174
			c-0.142,0.115-0.209,0.276-0.209,0.483L446.453,554.099L446.453,554.099z"/>
	</g>
	
		<circle display="inline" opacity="0.8" fill="#FFFFFF" stroke="#03468E" stroke-miterlimit="10" enable-background="new    " cx="186.387" cy="578.419" r="8.667"/>
	<g display="inline">
		<path d="M183.786,575.06c-0.272,0.011-0.466,0.123-0.582,0.345c-0.116,0.219-0.174,0.553-0.174,1.002v0.069l-0.948-0.168v-0.047
			c0-0.319,0.032-0.606,0.096-0.864c0.064-0.257,0.166-0.476,0.307-0.658c0.14-0.187,0.319-0.326,0.54-0.429
			c0.22-0.1,0.481-0.147,0.786-0.147c0.312,0,0.575,0.043,0.792,0.131c0.216,0.088,0.392,0.213,0.527,0.373
			c0.135,0.16,0.234,0.354,0.294,0.582c0.061,0.227,0.09,0.481,0.09,0.762c0,0.664-0.151,1.305-0.455,1.92l-1.872,3.779h2.268v0.877
			h-3.348v-0.828l2.172-4.332c0.111-0.217,0.182-0.442,0.21-0.684c0.027-0.24,0.042-0.48,0.042-0.722
			c0-0.11-0.008-0.227-0.024-0.342c-0.016-0.114-0.048-0.221-0.096-0.313c-0.048-0.092-0.122-0.166-0.222-0.224
			C184.087,575.089,183.954,575.06,183.786,575.06z"/>
		<path d="M190.025,581.06c0,0.267-0.046,0.496-0.138,0.697c-0.092,0.199-0.216,0.367-0.372,0.504
			c-0.156,0.138-0.336,0.238-0.54,0.308c-0.204,0.065-0.418,0.102-0.642,0.102c-0.225,0-0.438-0.035-0.643-0.102
			c-0.204-0.068-0.384-0.17-0.54-0.308c-0.155-0.137-0.279-0.305-0.372-0.504c-0.092-0.201-0.138-0.432-0.138-0.697v-5.268
			c0-0.264,0.046-0.498,0.138-0.701c0.093-0.205,0.217-0.375,0.372-0.51c0.156-0.137,0.336-0.24,0.54-0.313
			c0.204-0.072,0.418-0.106,0.643-0.106c0.496,0,0.901,0.139,1.218,0.42c0.315,0.279,0.474,0.684,0.474,1.211V581.06L190.025,581.06
			z M189.078,575.757c0-0.209-0.07-0.377-0.21-0.504c-0.141-0.129-0.318-0.193-0.534-0.193s-0.395,0.064-0.534,0.193
			c-0.141,0.127-0.21,0.295-0.21,0.504v5.34c0,0.207,0.069,0.375,0.21,0.505c0.14,0.129,0.318,0.19,0.534,0.19
			s0.394-0.063,0.534-0.19c0.14-0.13,0.21-0.298,0.21-0.505V575.757z"/>
	</g>
	
		<circle display="inline" opacity="0.8" fill="#FFFFFF" stroke="#03468E" stroke-miterlimit="10" enable-background="new    " cx="325.387" cy="578.419" r="8.667"/>
	<g display="inline">
		<path d="M322.786,575.06c-0.272,0.011-0.466,0.123-0.582,0.345c-0.116,0.219-0.175,0.553-0.175,1.002v0.069l-0.947-0.168v-0.047
			c0-0.319,0.032-0.606,0.096-0.864c0.064-0.257,0.166-0.476,0.307-0.658c0.141-0.187,0.32-0.326,0.541-0.429
			c0.22-0.1,0.48-0.147,0.785-0.147c0.313,0,0.576,0.043,0.793,0.131c0.215,0.088,0.392,0.213,0.526,0.373
			c0.136,0.16,0.234,0.354,0.294,0.582c0.061,0.227,0.09,0.481,0.09,0.762c0,0.664-0.15,1.305-0.455,1.92l-1.871,3.779h2.268v0.877
			h-3.348v-0.828l2.172-4.332c0.111-0.217,0.182-0.442,0.21-0.684c0.026-0.24,0.042-0.48,0.042-0.722
			c0-0.11-0.008-0.227-0.024-0.342c-0.016-0.114-0.048-0.221-0.096-0.313s-0.122-0.166-0.222-0.224
			C323.087,575.089,322.954,575.06,322.786,575.06z"/>
		<path d="M327.465,582.585v-7.356l-1.212,0.973v-1.008l1.188-0.959h0.973v8.352L327.465,582.585L327.465,582.585z"/>
	</g>
	
		<circle display="inline" opacity="0.8" fill="#FFFFFF" stroke="#03468E" stroke-miterlimit="10" enable-background="new    " cx="256.137" cy="595.836" r="8.667"/>
	<g display="inline">
		<path d="M253.536,592.479c-0.272,0.008-0.466,0.12-0.582,0.342c-0.116,0.221-0.174,0.555-0.174,1.002v0.072l-0.948-0.169v-0.049
			c0-0.317,0.032-0.606,0.096-0.862c0.064-0.257,0.166-0.478,0.307-0.66c0.14-0.185,0.319-0.326,0.54-0.426
			c0.22-0.101,0.481-0.15,0.786-0.15c0.312,0,0.575,0.045,0.792,0.133c0.216,0.088,0.392,0.211,0.527,0.371
			c0.135,0.16,0.234,0.354,0.294,0.582c0.061,0.229,0.09,0.481,0.09,0.762c0,0.664-0.151,1.305-0.455,1.92l-1.872,3.781h2.268v0.875
			h-3.348v-0.828l2.172-4.332c0.111-0.215,0.182-0.442,0.21-0.684c0.027-0.24,0.042-0.48,0.042-0.722
			c0-0.11-0.008-0.225-0.024-0.342c-0.016-0.114-0.048-0.219-0.096-0.311c-0.048-0.092-0.122-0.166-0.222-0.224
			C253.837,592.505,253.704,592.479,253.536,592.479z"/>
		<path d="M258.095,592.479c-0.272,0.008-0.466,0.12-0.582,0.342c-0.116,0.221-0.174,0.555-0.174,1.002v0.072l-0.948-0.169v-0.049
			c0-0.317,0.032-0.606,0.096-0.862c0.064-0.257,0.166-0.478,0.307-0.66c0.14-0.185,0.319-0.326,0.54-0.426
			c0.22-0.101,0.481-0.15,0.786-0.15c0.312,0,0.575,0.045,0.792,0.133c0.216,0.088,0.392,0.211,0.527,0.371
			c0.135,0.16,0.234,0.354,0.293,0.582c0.062,0.229,0.091,0.481,0.091,0.762c0,0.664-0.151,1.305-0.455,1.92l-1.872,3.781h2.268
			v0.875h-3.348v-0.828l2.172-4.332c0.111-0.215,0.182-0.442,0.21-0.684c0.027-0.24,0.042-0.48,0.042-0.722
			c0-0.11-0.008-0.225-0.024-0.342c-0.016-0.114-0.048-0.219-0.096-0.311c-0.048-0.092-0.122-0.166-0.222-0.224
			C258.397,592.505,258.263,592.479,258.095,592.479z"/>
	</g>
	
		<circle display="inline" opacity="0.8" fill="#FFFFFF" stroke="#03468E" stroke-miterlimit="10" enable-background="new    " cx="185.97" cy="605.961" r="8.667"/>
	<g display="inline">
		<path d="M183.369,602.604c-0.272,0.008-0.466,0.12-0.582,0.342c-0.116,0.221-0.174,0.555-0.174,1.002v0.072l-0.948-0.169v-0.049
			c0-0.317,0.032-0.606,0.096-0.862c0.064-0.257,0.166-0.478,0.307-0.66c0.14-0.185,0.319-0.326,0.54-0.426
			c0.22-0.101,0.481-0.15,0.786-0.15c0.312,0,0.575,0.045,0.792,0.133c0.216,0.088,0.392,0.211,0.527,0.371
			c0.135,0.16,0.234,0.354,0.294,0.582c0.061,0.229,0.09,0.481,0.09,0.762c0,0.664-0.151,1.305-0.455,1.92l-1.872,3.781h2.268v0.875
			h-3.348v-0.828l2.172-4.332c0.111-0.215,0.182-0.442,0.21-0.684c0.027-0.24,0.042-0.48,0.042-0.722
			c0-0.11-0.008-0.225-0.024-0.342c-0.016-0.114-0.048-0.219-0.096-0.311c-0.048-0.092-0.122-0.166-0.222-0.224
			C183.67,602.63,183.537,602.604,183.369,602.604z"/>
		<path d="M189.584,608.411c0,0.32-0.048,0.594-0.145,0.822c-0.096,0.227-0.222,0.411-0.378,0.557
			c-0.156,0.146-0.336,0.25-0.54,0.318c-0.204,0.067-0.422,0.102-0.653,0.102c-0.328,0-0.603-0.047-0.822-0.143
			c-0.221-0.099-0.396-0.229-0.528-0.396c-0.132-0.167-0.222-0.371-0.27-0.604c-0.048-0.236-0.064-0.498-0.048-0.787l0.947-0.133
			c-0.04,0.36-0.002,0.647,0.114,0.864c0.116,0.216,0.326,0.324,0.63,0.324c0.208,0,0.386-0.065,0.534-0.199
			c0.147-0.131,0.222-0.36,0.222-0.688v-1.26c0-0.337-0.065-0.578-0.197-0.728c-0.133-0.146-0.351-0.221-0.654-0.221h-0.372v-0.828
			h0.396c0.296,0,0.509-0.068,0.637-0.205c0.128-0.135,0.191-0.363,0.191-0.685v-1.067c0-0.104-0.01-0.207-0.029-0.313
			c-0.021-0.104-0.055-0.194-0.103-0.274c-0.048-0.08-0.116-0.146-0.204-0.191c-0.088-0.049-0.204-0.072-0.348-0.072
			c-0.28,0-0.486,0.105-0.618,0.318c-0.132,0.211-0.198,0.494-0.198,0.846l-0.947-0.133c0.008-0.271,0.052-0.524,0.132-0.762
			c0.079-0.236,0.193-0.439,0.342-0.611c0.147-0.172,0.334-0.309,0.558-0.408c0.225-0.1,0.488-0.149,0.792-0.149
			c0.296,0,0.544,0.047,0.744,0.139c0.2,0.092,0.362,0.215,0.486,0.371s0.212,0.338,0.264,0.547
			c0.052,0.207,0.078,0.424,0.078,0.648v0.852c0,0.16-0.006,0.314-0.018,0.461c-0.013,0.148-0.04,0.287-0.084,0.414
			c-0.045,0.129-0.112,0.246-0.204,0.355c-0.093,0.106-0.223,0.205-0.391,0.293v0.037c0.16,0.069,0.286,0.151,0.378,0.245
			c0.092,0.093,0.162,0.199,0.21,0.322c0.049,0.125,0.078,0.267,0.091,0.42c0.012,0.156,0.018,0.33,0.018,0.523L189.584,608.411z"/>
	</g>
	
		<circle display="inline" opacity="0.8" fill="#FFFFFF" stroke="#03468E" stroke-miterlimit="10" enable-background="new    " cx="212.97" cy="605.961" r="8.667"/>
	<g display="inline">
		<path d="M210.369,602.604c-0.272,0.008-0.466,0.12-0.582,0.342c-0.116,0.221-0.174,0.555-0.174,1.002v0.072l-0.948-0.169v-0.049
			c0-0.317,0.032-0.606,0.096-0.862c0.064-0.257,0.166-0.478,0.307-0.66c0.14-0.185,0.319-0.326,0.54-0.426
			c0.22-0.101,0.481-0.15,0.786-0.15c0.312,0,0.575,0.045,0.792,0.133c0.216,0.088,0.392,0.211,0.527,0.371
			c0.135,0.16,0.234,0.354,0.294,0.582c0.061,0.229,0.09,0.481,0.09,0.762c0,0.664-0.151,1.305-0.455,1.92l-1.872,3.781h2.268v0.875
			h-3.348v-0.828l2.172-4.332c0.111-0.215,0.182-0.442,0.21-0.684c0.027-0.24,0.042-0.48,0.042-0.722
			c0-0.11-0.008-0.225-0.024-0.342c-0.016-0.114-0.048-0.219-0.096-0.311c-0.048-0.092-0.122-0.166-0.222-0.224
			C210.67,602.63,210.537,602.604,210.369,602.604z"/>
		<path d="M216.32,608.806v1.32h-0.947v-1.32h-2.46v-0.852l1.752-6.18h0.936l-1.764,6.18h1.536v-2.316h0.947v2.316h0.589v0.852
			H216.32z"/>
	</g>
	
		<circle display="inline" opacity="0.8" fill="#FFFFFF" stroke="#03468E" stroke-miterlimit="10" enable-background="new    " cx="298.971" cy="605.961" r="8.667"/>
	<g display="inline">
		<path d="M296.369,602.604c-0.271,0.008-0.467,0.12-0.582,0.342c-0.116,0.221-0.174,0.555-0.174,1.002v0.072l-0.948-0.169v-0.049
			c0-0.317,0.032-0.606,0.096-0.862c0.064-0.257,0.166-0.478,0.308-0.66c0.14-0.185,0.318-0.326,0.539-0.426
			c0.221-0.101,0.481-0.15,0.787-0.15c0.312,0,0.574,0.045,0.791,0.133s0.393,0.211,0.527,0.371s0.234,0.354,0.294,0.582
			c0.062,0.229,0.091,0.481,0.091,0.762c0,0.664-0.152,1.305-0.455,1.92l-1.873,3.781h2.269v0.875h-3.349v-0.828l2.172-4.332
			c0.111-0.215,0.183-0.442,0.211-0.684c0.027-0.24,0.042-0.48,0.042-0.722c0-0.11-0.009-0.225-0.024-0.342
			c-0.016-0.114-0.048-0.219-0.096-0.311c-0.049-0.092-0.122-0.166-0.223-0.224C296.67,602.63,296.537,602.604,296.369,602.604z"/>
		<path d="M300.88,610.21c-0.328,0-0.601-0.049-0.815-0.15c-0.217-0.1-0.391-0.233-0.521-0.405s-0.229-0.377-0.288-0.613
			c-0.062-0.236-0.095-0.49-0.103-0.762l0.947-0.133c0,0.178,0.008,0.338,0.024,0.479c0.017,0.146,0.052,0.271,0.106,0.373
			c0.058,0.104,0.138,0.186,0.24,0.246c0.104,0.059,0.248,0.09,0.432,0.09c0.209,0,0.381-0.066,0.518-0.199
			c0.137-0.131,0.212-0.36,0.229-0.688v-2.16c0-0.471-0.231-0.707-0.695-0.707c-0.186,0-0.342,0.041-0.469,0.125
			c-0.129,0.084-0.225,0.199-0.289,0.342h-0.826v-4.271h3.238v0.852h-2.398v2.521h0.061c0.119-0.119,0.269-0.209,0.443-0.271
			c0.176-0.059,0.355-0.09,0.54-0.09c0.472,0,0.81,0.133,1.015,0.396c0.203,0.264,0.306,0.588,0.306,0.974v2.256
			c0,0.32-0.044,0.594-0.132,0.822c-0.088,0.227-0.211,0.411-0.365,0.557c-0.156,0.146-0.337,0.25-0.54,0.318
			C301.331,610.177,301.111,610.21,300.88,610.21z"/>
	</g>
	
		<circle display="inline" opacity="0.8" fill="#FFFFFF" stroke="#03468E" stroke-miterlimit="10" enable-background="new    " cx="324.971" cy="605.961" r="8.667"/>
	<g display="inline">
		<path d="M322.369,602.604c-0.271,0.008-0.467,0.12-0.582,0.342c-0.116,0.221-0.174,0.555-0.174,1.002v0.072l-0.948-0.169v-0.049
			c0-0.317,0.032-0.606,0.096-0.862c0.064-0.257,0.166-0.478,0.308-0.66c0.14-0.185,0.318-0.326,0.539-0.426
			c0.221-0.101,0.481-0.15,0.787-0.15c0.312,0,0.574,0.045,0.791,0.133s0.393,0.211,0.527,0.371s0.234,0.354,0.294,0.582
			c0.062,0.229,0.091,0.481,0.091,0.762c0,0.664-0.152,1.305-0.455,1.92l-1.873,3.781h2.269v0.875h-3.349v-0.828l2.172-4.332
			c0.111-0.215,0.183-0.442,0.211-0.684c0.027-0.24,0.042-0.48,0.042-0.722c0-0.11-0.009-0.225-0.024-0.342
			c-0.016-0.114-0.048-0.219-0.096-0.311c-0.049-0.092-0.122-0.166-0.223-0.224C322.67,602.63,322.537,602.604,322.369,602.604z"/>
		<path d="M326.628,605.458c0.168-0.127,0.376-0.191,0.624-0.191c0.264,0,0.48,0.044,0.652,0.128
			c0.174,0.084,0.312,0.196,0.414,0.342c0.104,0.145,0.18,0.313,0.224,0.506c0.044,0.19,0.065,0.393,0.065,0.602v1.756
			c0,0.265-0.047,0.498-0.139,0.697c-0.092,0.201-0.216,0.369-0.371,0.506c-0.156,0.137-0.337,0.238-0.541,0.308
			c-0.203,0.068-0.418,0.102-0.642,0.102c-0.226,0-0.438-0.033-0.644-0.102c-0.205-0.069-0.383-0.17-0.539-0.308
			c-0.155-0.135-0.279-0.303-0.373-0.504c-0.092-0.199-0.137-0.432-0.137-0.695v-1.393c0-0.359,0.023-0.66,0.071-0.9
			c0.048-0.237,0.106-0.45,0.181-0.635l1.547-3.9h0.961l-1.393,3.648L326.628,605.458z M327.661,606.802
			c0-0.207-0.068-0.369-0.204-0.483c-0.137-0.117-0.313-0.177-0.527-0.177c-0.145,0-0.265,0.027-0.361,0.078
			c-0.096,0.054-0.174,0.121-0.232,0.205c-0.061,0.084-0.104,0.178-0.126,0.281c-0.024,0.104-0.036,0.209-0.036,0.313v1.656
			c0,0.207,0.069,0.369,0.21,0.486c0.14,0.115,0.318,0.174,0.534,0.174s0.395-0.059,0.534-0.174c0.14-0.117,0.21-0.279,0.21-0.486
			L327.661,606.802L327.661,606.802z"/>
	</g>
	
		<image display="inline" overflow="visible" width="518" height="617" xlink:href="../gfx/1st.png"  transform="matrix(0.9999 0 0 0.9999 0.0059 -0.0029)">
	</image>
</g>
<g id="Layer_2">
	
		<circle opacity="0.8" fill="#FFFFFF" stroke="#03468E" stroke-miterlimit="10" enable-background="new    " cx="104.223" cy="469.018" r="8.667"/>
	<g>
		<path d="M102.024,470.431v1.967h-0.708v-1.967h-1.823v-0.732h1.823v-1.956h0.708v1.956h1.824v0.732H102.024z"/>
		<path d="M106.356,473.599v-7.356l-1.212,0.972v-1.008l1.188-0.96h0.973v8.353H106.356z"/>
	</g>
	
		<circle opacity="0.8" fill="#FFFFFF" stroke="#03468E" stroke-miterlimit="10" enable-background="new    " cx="65.89" cy="421.018" r="8.667"/>
	<g>
		<path d="M61.639,422.562v-0.803h3.108v0.803H61.639z"/>
		<path d="M67.616,425.599v-7.356l-1.212,0.972v-1.008l1.188-0.96h0.973v8.353H67.616z"/>
	</g>
	
		<circle opacity="0.8" fill="#FFFFFF" stroke="#03468E" stroke-miterlimit="10" enable-background="new    " cx="145.89" cy="421.018" r="8.667"/>
	<g>
		<path d="M141.639,422.562v-0.803h3.108v0.803H141.639z"/>
		<path d="M147.496,418.074c-0.272,0.008-0.466,0.122-0.582,0.342s-0.174,0.554-0.174,1.002v0.072l-0.948-0.168v-0.048
			c0-0.32,0.032-0.607,0.096-0.864c0.064-0.256,0.166-0.476,0.307-0.66c0.14-0.184,0.319-0.325,0.54-0.426
			c0.22-0.101,0.481-0.149,0.786-0.149c0.312,0,0.575,0.043,0.792,0.131c0.216,0.088,0.392,0.213,0.527,0.373
			s0.234,0.354,0.294,0.582c0.061,0.228,0.09,0.481,0.09,0.762c0,0.664-0.151,1.304-0.455,1.92l-1.872,3.779h2.268v0.877h-3.348
			v-0.828l2.172-4.332c0.111-0.217,0.182-0.444,0.21-0.685c0.027-0.239,0.042-0.479,0.042-0.72c0-0.111-0.008-0.227-0.024-0.342
			c-0.016-0.116-0.048-0.221-0.096-0.313s-0.122-0.166-0.222-0.222C147.797,418.103,147.664,418.074,147.496,418.074z"/>
	</g>
	
		<circle opacity="0.8" fill="#FFFFFF" stroke="#03468E" stroke-miterlimit="10" enable-background="new    " cx="225.89" cy="421.018" r="8.667"/>
	<g>
		<path d="M221.639,422.562v-0.803h3.108v0.803H221.639z"/>
		<path d="M229.152,423.882c0,0.32-0.048,0.594-0.145,0.822c-0.096,0.229-0.222,0.414-0.378,0.559
			c-0.156,0.144-0.336,0.25-0.54,0.317s-0.422,0.103-0.653,0.103c-0.328,0-0.603-0.049-0.822-0.145
			c-0.221-0.096-0.396-0.229-0.528-0.396s-0.222-0.369-0.27-0.605s-0.064-0.498-0.048-0.786l0.947-0.132
			c-0.04,0.359-0.002,0.648,0.114,0.863c0.116,0.217,0.326,0.324,0.63,0.324c0.208,0,0.386-0.065,0.534-0.197
			c0.147-0.133,0.222-0.362,0.222-0.69v-1.26c0-0.336-0.065-0.578-0.197-0.726c-0.133-0.148-0.351-0.223-0.654-0.223h-0.372v-0.828
			h0.396c0.296,0,0.509-0.067,0.637-0.203c0.128-0.137,0.191-0.365,0.191-0.685v-1.067c0-0.104-0.01-0.209-0.029-0.313
			c-0.021-0.104-0.055-0.196-0.103-0.275c-0.048-0.08-0.116-0.145-0.204-0.193c-0.088-0.047-0.204-0.071-0.348-0.071
			c-0.28,0-0.486,0.106-0.618,0.317c-0.132,0.213-0.198,0.494-0.198,0.847l-0.947-0.132c0.008-0.271,0.052-0.526,0.132-0.762
			c0.079-0.236,0.193-0.44,0.342-0.613c0.147-0.172,0.334-0.307,0.558-0.407c0.225-0.101,0.488-0.149,0.792-0.149
			c0.296,0,0.544,0.045,0.744,0.137c0.2,0.093,0.362,0.217,0.486,0.373s0.212,0.338,0.264,0.545
			c0.052,0.209,0.078,0.425,0.078,0.648v0.852c0,0.16-0.006,0.314-0.018,0.463c-0.013,0.148-0.04,0.285-0.084,0.414
			c-0.045,0.128-0.112,0.246-0.204,0.354c-0.093,0.108-0.223,0.206-0.391,0.294v0.036c0.16,0.072,0.286,0.154,0.378,0.246
			s0.162,0.2,0.21,0.324c0.049,0.124,0.078,0.264,0.091,0.42c0.012,0.156,0.018,0.33,0.018,0.521L229.152,423.882z"/>
	</g>
	
		<circle opacity="0.8" fill="#FFFFFF" stroke="#03468E" stroke-miterlimit="10" enable-background="new    " cx="159.223" cy="469.018" r="8.667"/>
	<g>
		<path d="M157.024,470.431v1.967h-0.708v-1.967h-1.823v-0.732h1.823v-1.956h0.708v1.956h1.824v0.732H157.024z"/>
		<path d="M161.236,466.074c-0.272,0.008-0.466,0.122-0.582,0.342s-0.174,0.554-0.174,1.002v0.072l-0.948-0.168v-0.048
			c0-0.32,0.032-0.607,0.096-0.864c0.064-0.256,0.166-0.476,0.307-0.66c0.14-0.184,0.319-0.325,0.54-0.426
			c0.22-0.101,0.481-0.149,0.786-0.149c0.312,0,0.575,0.043,0.792,0.131c0.216,0.088,0.392,0.213,0.527,0.373
			s0.234,0.354,0.294,0.582c0.061,0.228,0.09,0.481,0.09,0.762c0,0.664-0.151,1.304-0.455,1.92l-1.872,3.779h2.268v0.877h-3.348
			v-0.828l2.172-4.332c0.111-0.217,0.182-0.444,0.21-0.685c0.027-0.239,0.042-0.479,0.042-0.72c0-0.111-0.008-0.227-0.024-0.342
			c-0.016-0.116-0.048-0.221-0.096-0.313s-0.122-0.166-0.222-0.222C161.538,466.103,161.404,466.074,161.236,466.074z"/>
	</g>
	
		<circle opacity="0.8" fill="#FFFFFF" stroke="#03468E" stroke-miterlimit="10" enable-background="new    " cx="350.557" cy="443.352" r="8.667"/>
	<g>
		<path d="M354.449,447.933v-7.356l-1.211,0.972v-1.008l1.188-0.96h0.973v8.353H354.449z"/>
		<path d="M349.015,445.05h-1.044l-0.492,2.701h-0.637l0.505-2.701h-0.732v-0.623h0.852l0.324-1.801h-0.731v-0.623h0.852
			l0.504-2.664h0.636l-0.504,2.664h1.044l0.492-2.664h0.637l-0.505,2.664h0.744v0.623h-0.863l-0.324,1.801h0.744v0.623h-0.864
			l-0.504,2.701h-0.636L349.015,445.05z M348.09,444.427h1.044l0.337-1.801h-1.044L348.09,444.427z"/>
	</g>
	
		<circle opacity="0.8" fill="#FFFFFF" stroke="#03468E" stroke-miterlimit="10" enable-background="new    " cx="133.557" cy="450.352" r="8.667"/>
	<g>
		<path d="M129.203,452.231h-1.044l-0.492,2.701h-0.637l0.505-2.701h-0.732v-0.623h0.852l0.324-1.801h-0.731v-0.623h0.852
			l0.504-2.664h0.636l-0.504,2.664h1.044l0.492-2.664h0.637l-0.505,2.664h0.744v0.623h-0.863l-0.324,1.801h0.744v0.623h-0.864
			l-0.504,2.701h-0.636L129.203,452.231z M128.278,451.608h1.044l0.337-1.801h-1.044L128.278,451.608z"/>
		<path d="M133.57,447.408c-0.272,0.008-0.466,0.122-0.582,0.342s-0.174,0.554-0.174,1.002v0.072l-0.948-0.168v-0.048
			c0-0.32,0.032-0.607,0.096-0.864c0.064-0.256,0.166-0.476,0.307-0.66c0.14-0.184,0.319-0.325,0.54-0.426
			c0.22-0.101,0.481-0.149,0.786-0.149c0.312,0,0.575,0.043,0.792,0.131c0.216,0.088,0.392,0.213,0.527,0.373
			s0.234,0.354,0.294,0.582c0.061,0.228,0.09,0.481,0.09,0.762c0,0.664-0.151,1.304-0.455,1.92l-1.872,3.779h2.268v0.877h-3.348
			v-0.828l2.172-4.332c0.111-0.217,0.182-0.444,0.21-0.685c0.027-0.239,0.042-0.479,0.042-0.72c0-0.111-0.008-0.227-0.024-0.342
			c-0.016-0.116-0.048-0.221-0.096-0.313s-0.122-0.166-0.222-0.222C133.872,447.437,133.738,447.408,133.57,447.408z"/>
		<path d="M138.13,447.408c-0.272,0.008-0.466,0.122-0.582,0.342s-0.174,0.554-0.174,1.002v0.072l-0.948-0.168v-0.048
			c0-0.32,0.032-0.607,0.096-0.864c0.064-0.256,0.166-0.476,0.307-0.66c0.14-0.184,0.319-0.325,0.54-0.426
			c0.22-0.101,0.481-0.149,0.786-0.149c0.312,0,0.575,0.043,0.792,0.131c0.216,0.088,0.392,0.213,0.527,0.373
			s0.234,0.354,0.294,0.582c0.061,0.228,0.09,0.481,0.09,0.762c0,0.664-0.151,1.304-0.455,1.92l-1.872,3.779h2.268v0.877h-3.348
			v-0.828l2.172-4.332c0.111-0.217,0.182-0.444,0.21-0.685c0.027-0.239,0.042-0.479,0.042-0.72c0-0.111-0.008-0.227-0.024-0.342
			c-0.016-0.116-0.048-0.221-0.096-0.313s-0.122-0.166-0.222-0.222C138.432,447.437,138.298,447.408,138.13,447.408z"/>
	</g>
</g>
</svg>
