<?xml version="1.0" encoding="utf-8"?>
<!-- Generator: Adobe Illustrator 15.1.0, SVG Export Plug-In . SVG Version: 6.00 Build 0)  -->
<!DOCTYPE svg PUBLIC "-//W3C//DTD SVG 1.1//EN" "http://www.w3.org/Graphics/SVG/1.1/DTD/svg11.dtd">
<svg version="1.1" xmlns="http://www.w3.org/2000/svg" xmlns:xlink="http://www.w3.org/1999/xlink" x="0px" y="0px"
	 width="517.941px" height="616.92px" viewBox="0 0 517.941 616.92" enable-background="new 0 0 517.941 616.92"
	 xml:space="preserve">
<g id="Layer_29" display="none">
	
		<circle display="inline" opacity="0.8" fill="#FFFFFF" stroke="#03468E" stroke-miterlimit="10" enable-background="new    " cx="329.137" cy="76" r="8.667"/>
	<g display="inline">
		<path d="M329.216,80.166V72.81l-1.212,0.973v-1.008l1.188-0.96h0.974v8.352L329.216,80.166L329.216,80.166z"/>
	</g>
	
		<circle display="inline" opacity="0.8" fill="#FFFFFF" stroke="#03468E" stroke-miterlimit="10" enable-background="new    " cx="502.25" cy="274.609" r="8.667"/>
	<g display="inline">
		<path d="M502.208,271.251c-0.272,0.009-0.466,0.122-0.582,0.343c-0.116,0.22-0.174,0.554-0.174,1.002v0.071l-0.948-0.168v-0.048
			c0-0.319,0.032-0.607,0.096-0.864c0.064-0.256,0.166-0.476,0.308-0.659c0.14-0.185,0.318-0.326,0.54-0.427
			c0.22-0.1,0.48-0.149,0.786-0.149c0.312,0,0.574,0.044,0.792,0.132c0.216,0.088,0.392,0.212,0.526,0.372
			c0.136,0.16,0.234,0.354,0.294,0.582c0.062,0.228,0.09,0.482,0.09,0.762c0,0.664-0.15,1.305-0.454,1.92l-1.872,3.78h2.268v0.876
			h-3.348v-0.828l2.172-4.332c0.111-0.216,0.182-0.443,0.21-0.684c0.027-0.24,0.042-0.48,0.042-0.721
			c0-0.111-0.008-0.226-0.024-0.342c-0.016-0.115-0.048-0.22-0.096-0.312c-0.048-0.092-0.122-0.166-0.222-0.223
			C502.51,271.279,502.376,271.251,502.208,271.251z"/>
	</g>
	
		<circle display="inline" opacity="0.8" fill="#FFFFFF" stroke="#03468E" stroke-miterlimit="10" enable-background="new    " cx="267.971" cy="403.001" r="8.667"/>
	<g display="inline">
		<path d="M269.585,405.45c0,0.319-0.048,0.594-0.146,0.822c-0.096,0.229-0.222,0.413-0.377,0.559
			c-0.156,0.143-0.336,0.25-0.541,0.318c-0.203,0.065-0.422,0.102-0.652,0.102c-0.328,0-0.604-0.049-0.822-0.145
			c-0.221-0.097-0.396-0.229-0.527-0.396c-0.133-0.167-0.223-0.369-0.271-0.604c-0.048-0.236-0.063-0.498-0.048-0.785l0.947-0.134
			c-0.041,0.359-0.002,0.648,0.113,0.863c0.116,0.217,0.326,0.324,0.631,0.324c0.207,0,0.385-0.066,0.533-0.197
			c0.147-0.133,0.223-0.36,0.223-0.688v-1.263c0-0.336-0.065-0.575-0.197-0.725c-0.133-0.148-0.352-0.223-0.654-0.223h-0.372v-0.828
			h0.396c0.297,0,0.51-0.068,0.638-0.203c0.128-0.137,0.19-0.365,0.19-0.684v-1.068c0-0.104-0.01-0.209-0.028-0.313
			c-0.021-0.104-0.056-0.194-0.103-0.274c-0.049-0.08-0.117-0.146-0.205-0.193c-0.088-0.047-0.203-0.072-0.348-0.072
			c-0.279,0-0.486,0.107-0.617,0.318c-0.133,0.213-0.199,0.494-0.199,0.846l-0.946-0.131c0.008-0.271,0.052-0.524,0.132-0.762
			c0.079-0.236,0.193-0.441,0.342-0.613c0.147-0.172,0.334-0.307,0.559-0.408c0.225-0.1,0.488-0.147,0.791-0.147
			c0.297,0,0.545,0.045,0.744,0.137c0.2,0.092,0.362,0.217,0.486,0.373s0.212,0.338,0.264,0.545
			c0.053,0.209,0.078,0.424,0.078,0.648v0.852c0,0.16-0.006,0.314-0.018,0.463c-0.014,0.148-0.04,0.285-0.084,0.414
			c-0.045,0.127-0.112,0.246-0.204,0.354c-0.093,0.106-0.224,0.207-0.392,0.295v0.035c0.16,0.071,0.287,0.153,0.379,0.246
			c0.092,0.092,0.162,0.198,0.209,0.323c0.05,0.123,0.078,0.265,0.092,0.42c0.012,0.156,0.018,0.33,0.018,0.521L269.585,405.45z"/>
	</g>
	
		<circle display="inline" opacity="0.8" fill="#FFFFFF" stroke="#03468E" stroke-miterlimit="10" enable-background="new    " cx="15.583" cy="416.001" r="8.667"/>
	<g display="inline">
		<path d="M16.934,418.847v1.32h-0.947v-1.32h-2.46v-0.852l1.752-6.18h0.936l-1.764,6.18h1.536v-2.316h0.947v2.316h0.589v0.852
			H16.934z"/>
	</g>
	
		<circle display="inline" opacity="0.8" fill="#FFFFFF" stroke="#03468E" stroke-miterlimit="10" enable-background="new    " cx="436.917" cy="416.001" r="8.667"/>
	<g display="inline">
		<path d="M436.829,420.251c-0.328,0-0.602-0.051-0.816-0.15c-0.215-0.099-0.39-0.235-0.521-0.407s-0.229-0.375-0.288-0.611
			c-0.062-0.236-0.095-0.49-0.104-0.762l0.948-0.133c0,0.176,0.008,0.336,0.024,0.479c0.016,0.144,0.052,0.269,0.106,0.371
			c0.058,0.104,0.138,0.186,0.24,0.246c0.104,0.06,0.248,0.09,0.432,0.09c0.208,0,0.381-0.066,0.518-0.197
			c0.136-0.133,0.212-0.36,0.228-0.688v-2.16c0-0.473-0.23-0.709-0.694-0.709c-0.186,0-0.342,0.043-0.47,0.127
			s-0.224,0.197-0.288,0.342h-0.826v-4.271h3.238v0.852h-2.398v2.521h0.06c0.12-0.119,0.27-0.211,0.444-0.271
			c0.176-0.061,0.354-0.09,0.54-0.09c0.472,0,0.81,0.131,1.014,0.395c0.204,0.267,0.307,0.589,0.307,0.974v2.256
			c0,0.32-0.044,0.594-0.133,0.822c-0.088,0.228-0.21,0.414-0.364,0.559c-0.156,0.143-0.337,0.25-0.54,0.318
			C437.279,420.216,437.06,420.251,436.829,420.251z"/>
	</g>
	
		<circle display="inline" opacity="0.8" fill="#FFFFFF" stroke="#03468E" stroke-miterlimit="10" enable-background="new    " cx="15.583" cy="452.461" r="8.667"/>
	<g display="inline">
		<path d="M15.243,451.958c0.168-0.127,0.376-0.191,0.624-0.191c0.264,0,0.481,0.043,0.653,0.127
			c0.173,0.085,0.311,0.197,0.414,0.343c0.104,0.145,0.179,0.313,0.223,0.506c0.044,0.19,0.065,0.393,0.065,0.602v1.756
			c0,0.265-0.046,0.498-0.138,0.697c-0.092,0.201-0.216,0.369-0.372,0.506c-0.156,0.138-0.336,0.238-0.54,0.308
			c-0.204,0.068-0.418,0.102-0.642,0.102c-0.225,0-0.438-0.033-0.643-0.102c-0.205-0.069-0.384-0.17-0.54-0.308
			c-0.155-0.135-0.279-0.303-0.372-0.504c-0.092-0.199-0.138-0.432-0.138-0.694v-1.394c0-0.359,0.024-0.66,0.072-0.9
			c0.048-0.237,0.107-0.45,0.18-0.635l1.548-3.899h0.96l-1.392,3.647L15.243,451.958z M16.275,453.302
			c0-0.207-0.068-0.369-0.204-0.483c-0.137-0.117-0.313-0.177-0.528-0.177c-0.144,0-0.264,0.027-0.36,0.078
			c-0.096,0.054-0.174,0.121-0.233,0.205c-0.061,0.084-0.103,0.178-0.126,0.281c-0.024,0.104-0.036,0.209-0.036,0.313v1.656
			c0,0.207,0.069,0.369,0.21,0.486c0.14,0.115,0.318,0.174,0.534,0.174c0.216,0,0.394-0.059,0.534-0.174
			c0.14-0.117,0.21-0.279,0.21-0.486L16.275,453.302L16.275,453.302z"/>
	</g>
	
		<circle display="inline" opacity="0.8" fill="#FFFFFF" stroke="#03468E" stroke-miterlimit="10" enable-background="new    " cx="78.583" cy="452.461" r="8.667"/>
	<g display="inline">
		<path d="M78.098,456.626h-0.912l2.101-7.5H77.63v0.996h-0.828v-1.848h3.444v0.778L78.098,456.626z"/>
	</g>
	
		<circle display="inline" opacity="0.8" fill="#FFFFFF" stroke="#03468E" stroke-miterlimit="10" enable-background="new    " cx="104.583" cy="452.461" r="8.667"/>
	<g display="inline">
		<path d="M106.222,450.938c0,0.306-0.06,0.564-0.18,0.779c-0.12,0.217-0.276,0.394-0.468,0.529
			c0.191,0.135,0.348,0.313,0.468,0.533c0.12,0.22,0.18,0.481,0.18,0.787v1.534c0,0.265-0.046,0.496-0.138,0.695
			c-0.092,0.201-0.216,0.369-0.372,0.504c-0.156,0.137-0.336,0.238-0.54,0.308c-0.204,0.068-0.418,0.102-0.642,0.102
			c-0.225,0-0.438-0.033-0.643-0.102c-0.205-0.069-0.384-0.171-0.54-0.308c-0.155-0.135-0.279-0.303-0.372-0.504
			c-0.092-0.199-0.138-0.432-0.138-0.695v-1.534c0-0.306,0.058-0.566,0.174-0.787c0.116-0.222,0.274-0.398,0.475-0.533
			c-0.2-0.137-0.358-0.313-0.475-0.529c-0.116-0.215-0.174-0.475-0.174-0.779v-1.104c0-0.264,0.046-0.498,0.138-0.703
			c0.093-0.203,0.217-0.373,0.372-0.51c0.156-0.135,0.336-0.24,0.54-0.313c0.204-0.069,0.418-0.106,0.643-0.106
			c0.224,0,0.438,0.037,0.642,0.106c0.204,0.072,0.384,0.179,0.54,0.313c0.156,0.137,0.28,0.307,0.372,0.51
			c0.092,0.205,0.138,0.439,0.138,0.703V450.938z M105.275,449.763c0-0.209-0.07-0.375-0.21-0.498
			c-0.141-0.125-0.318-0.186-0.534-0.186c-0.216,0-0.395,0.061-0.534,0.186c-0.141,0.123-0.21,0.289-0.21,0.498v1.367
			c0,0.209,0.069,0.377,0.21,0.504c0.14,0.129,0.318,0.193,0.534,0.193c0.216,0,0.394-0.064,0.534-0.193
			c0.14-0.127,0.21-0.295,0.21-0.504V449.763z M105.275,453.351c0-0.209-0.07-0.381-0.21-0.516
			c-0.141-0.137-0.318-0.205-0.534-0.205c-0.216,0-0.395,0.068-0.534,0.205c-0.141,0.135-0.21,0.307-0.21,0.516v1.824
			c0,0.207,0.069,0.369,0.21,0.486c0.14,0.115,0.318,0.174,0.534,0.174c0.216,0,0.394-0.059,0.534-0.174
			c0.14-0.117,0.21-0.279,0.21-0.486V453.351z"/>
	</g>
	
		<circle display="inline" opacity="0.8" fill="#FFFFFF" stroke="#03468E" stroke-miterlimit="10" enable-background="new    " cx="160.583" cy="452.461" r="8.667"/>
	<g display="inline">
		<path d="M160.819,452.931c-0.168,0.127-0.377,0.191-0.624,0.191c-0.265,0-0.482-0.041-0.654-0.125s-0.311-0.199-0.414-0.342
			c-0.104-0.146-0.178-0.313-0.222-0.504c-0.044-0.193-0.066-0.394-0.066-0.603v-1.752c0-0.264,0.046-0.496,0.138-0.695
			c0.093-0.198,0.217-0.366,0.372-0.504c0.156-0.137,0.336-0.237,0.54-0.307c0.204-0.069,0.418-0.102,0.643-0.102
			c0.535,0,0.952,0.137,1.248,0.407c0.296,0.271,0.443,0.672,0.443,1.199v1.394c0,0.358-0.023,0.659-0.071,0.899
			c-0.049,0.24-0.108,0.451-0.181,0.635l-1.548,3.9h-0.96l1.392-3.66L160.819,452.931z M159.787,451.599
			c0,0.207,0.067,0.373,0.204,0.498c0.136,0.123,0.312,0.187,0.527,0.187c0.145,0,0.265-0.027,0.36-0.084
			c0.096-0.056,0.174-0.125,0.234-0.209s0.102-0.183,0.126-0.289c0.023-0.107,0.036-0.213,0.036-0.318v-1.656
			c0-0.207-0.07-0.368-0.21-0.483c-0.141-0.117-0.318-0.174-0.534-0.174c-0.216,0-0.395,0.057-0.534,0.174
			c-0.141,0.115-0.21,0.276-0.21,0.483L159.787,451.599L159.787,451.599z"/>
	</g>
	
		<circle display="inline" opacity="0.8" fill="#FFFFFF" stroke="#03468E" stroke-miterlimit="10" enable-background="new    " cx="228.583" cy="462.461" r="8.667"/>
	<g display="inline">
		<path d="M226.103,466.626v-7.354l-1.212,0.973v-1.008l1.188-0.961h0.973v8.352L226.103,466.626L226.103,466.626z"/>
		<path d="M232.222,465.103c0,0.265-0.046,0.496-0.138,0.695c-0.092,0.201-0.216,0.369-0.372,0.504
			c-0.156,0.138-0.336,0.238-0.54,0.308c-0.204,0.068-0.418,0.102-0.642,0.102c-0.225,0-0.438-0.033-0.643-0.102
			c-0.205-0.069-0.384-0.17-0.54-0.308c-0.155-0.135-0.279-0.303-0.372-0.504c-0.092-0.199-0.138-0.432-0.138-0.695v-5.268
			c0-0.264,0.046-0.498,0.138-0.703c0.093-0.203,0.217-0.373,0.372-0.51c0.156-0.135,0.336-0.24,0.54-0.313
			c0.204-0.069,0.418-0.106,0.643-0.106c0.496,0,0.901,0.141,1.218,0.42c0.315,0.281,0.474,0.684,0.474,1.213V465.103
			L232.222,465.103z M231.275,459.798c0-0.207-0.07-0.375-0.21-0.504c-0.141-0.127-0.318-0.191-0.534-0.191
			c-0.216,0-0.395,0.064-0.534,0.191c-0.141,0.129-0.21,0.297-0.21,0.504v5.34c0,0.209,0.069,0.377,0.21,0.504
			c0.14,0.13,0.318,0.193,0.534,0.193c0.216,0,0.394-0.063,0.534-0.193c0.14-0.127,0.21-0.295,0.21-0.504V459.798z"/>
	</g>
	
		<circle display="inline" opacity="0.8" fill="#FFFFFF" stroke="#03468E" stroke-miterlimit="10" enable-background="new    " cx="260.583" cy="486.461" r="8.667"/>
	<g display="inline">
		<path d="M258.103,490.626v-7.354l-1.212,0.973v-1.008l1.188-0.961h0.973v8.352L258.103,490.626L258.103,490.626z"/>
		<path d="M262.663,490.626v-7.354l-1.212,0.973v-1.008l1.188-0.961h0.973v8.352L262.663,490.626L262.663,490.626z"/>
	</g>
	
		<circle display="inline" opacity="0.8" fill="#FFFFFF" stroke="#03468E" stroke-miterlimit="10" enable-background="new    " cx="291.583" cy="462.461" r="8.667"/>
	<g display="inline">
		<path d="M289.104,466.626v-7.354l-1.213,0.973v-1.008l1.188-0.961h0.973v8.352L289.104,466.626L289.104,466.626z"/>
		<path d="M293.542,459.103c-0.272,0.009-0.466,0.121-0.582,0.343c-0.116,0.221-0.174,0.555-0.174,1.002v0.071l-0.948-0.168v-0.049
			c0-0.317,0.032-0.606,0.096-0.862c0.064-0.257,0.166-0.478,0.308-0.66c0.14-0.185,0.319-0.326,0.54-0.427
			c0.22-0.1,0.48-0.149,0.785-0.149c0.313,0,0.576,0.045,0.793,0.133c0.216,0.088,0.392,0.211,0.527,0.371
			c0.135,0.16,0.233,0.354,0.293,0.582c0.062,0.229,0.09,0.482,0.09,0.762c0,0.664-0.15,1.306-0.455,1.92l-1.871,3.781h2.268v0.875
			h-3.348v-0.828l2.172-4.332c0.111-0.215,0.182-0.442,0.21-0.684c0.026-0.24,0.042-0.48,0.042-0.721
			c0-0.111-0.008-0.226-0.023-0.343c-0.017-0.114-0.049-0.219-0.097-0.311s-0.122-0.166-0.222-0.224
			C293.844,459.13,293.71,459.103,293.542,459.103z"/>
	</g>
	
		<circle display="inline" opacity="0.8" fill="#FFFFFF" stroke="#03468E" stroke-miterlimit="10" enable-background="new    " cx="390.583" cy="453.461" r="8.667"/>
	<g display="inline">
		<path d="M388.104,457.626v-7.354l-1.213,0.973v-1.008l1.188-0.961h0.973v8.352L388.104,457.626L388.104,457.626z"/>
		<path d="M394.199,455.911c0,0.32-0.049,0.594-0.145,0.822c-0.097,0.227-0.223,0.411-0.379,0.557
			c-0.156,0.145-0.336,0.25-0.539,0.318c-0.205,0.067-0.423,0.102-0.654,0.102c-0.328,0-0.603-0.047-0.821-0.143
			c-0.222-0.099-0.396-0.229-0.528-0.396c-0.132-0.167-0.222-0.371-0.27-0.604c-0.049-0.236-0.064-0.498-0.049-0.787l0.947-0.133
			c-0.039,0.36-0.002,0.647,0.114,0.864c0.116,0.215,0.326,0.324,0.63,0.324c0.208,0,0.387-0.066,0.534-0.199
			c0.147-0.131,0.222-0.36,0.222-0.688v-1.261c0-0.336-0.064-0.577-0.197-0.727c-0.133-0.146-0.351-0.221-0.653-0.221h-0.372v-0.828
			h0.396c0.295,0,0.508-0.068,0.637-0.205c0.128-0.135,0.191-0.363,0.191-0.684v-1.068c0-0.104-0.011-0.207-0.029-0.313
			c-0.021-0.104-0.055-0.194-0.104-0.274c-0.048-0.08-0.115-0.146-0.204-0.191c-0.088-0.049-0.204-0.071-0.348-0.071
			c-0.28,0-0.486,0.104-0.618,0.317c-0.132,0.211-0.197,0.494-0.197,0.846l-0.947-0.133c0.008-0.271,0.052-0.524,0.132-0.762
			c0.079-0.236,0.192-0.439,0.342-0.611c0.147-0.172,0.334-0.309,0.558-0.407c0.226-0.101,0.488-0.15,0.793-0.15
			c0.295,0,0.543,0.047,0.743,0.139s0.362,0.215,0.486,0.371s0.212,0.338,0.264,0.547c0.052,0.207,0.078,0.424,0.078,0.648v0.852
			c0,0.16-0.006,0.314-0.019,0.461c-0.012,0.148-0.039,0.287-0.084,0.414c-0.045,0.129-0.111,0.246-0.203,0.355
			c-0.094,0.106-0.223,0.205-0.391,0.293v0.037c0.159,0.069,0.285,0.151,0.377,0.246c0.092,0.092,0.162,0.198,0.211,0.321
			c0.049,0.125,0.078,0.267,0.09,0.42c0.013,0.156,0.019,0.33,0.019,0.523L394.199,455.911z"/>
	</g>
	
		<circle display="inline" opacity="0.8" fill="#FFFFFF" stroke="#03468E" stroke-miterlimit="10" enable-background="new    " cx="15.583" cy="489.461" r="8.667"/>
	<g display="inline">
		<path d="M13.103,493.626v-7.354l-1.212,0.973v-1.008l1.188-0.961h0.973v8.352L13.103,493.626L13.103,493.626z"/>
		<path d="M18.934,492.306v1.32h-0.947v-1.32h-2.46v-0.852l1.752-6.18h0.936l-1.764,6.18h1.536v-2.316h0.947v2.316h0.589v0.852
			H18.934z"/>
	</g>
	
		<circle display="inline" opacity="0.8" fill="#FFFFFF" stroke="#03468E" stroke-miterlimit="10" enable-background="new    " cx="242.137" cy="526.544" r="8.667"/>
	<g display="inline">
		<path d="M239.657,530.71v-7.356l-1.212,0.973v-1.008l1.188-0.959h0.973v8.352L239.657,530.71L239.657,530.71z"/>
		<path d="M244.048,530.794c-0.328,0-0.601-0.051-0.816-0.15c-0.215-0.099-0.39-0.235-0.521-0.407s-0.229-0.375-0.288-0.611
			c-0.061-0.236-0.095-0.49-0.103-0.762l0.948-0.134c0,0.177,0.008,0.337,0.024,0.48c0.016,0.143,0.052,0.268,0.107,0.371
			c0.057,0.104,0.137,0.186,0.24,0.246c0.103,0.06,0.248,0.09,0.432,0.09c0.208,0,0.38-0.066,0.517-0.197
			c0.136-0.133,0.212-0.361,0.228-0.688v-2.16c0-0.474-0.231-0.709-0.695-0.709c-0.185,0-0.341,0.043-0.469,0.127
			s-0.224,0.197-0.288,0.342h-0.827v-4.271h3.239v0.853h-2.399v2.52h0.06c0.12-0.118,0.269-0.211,0.444-0.27
			c0.176-0.062,0.355-0.09,0.54-0.09c0.472,0,0.81,0.131,1.014,0.395c0.204,0.267,0.306,0.588,0.306,0.974v2.256
			c0,0.319-0.044,0.594-0.132,0.822c-0.088,0.228-0.21,0.413-0.365,0.559c-0.156,0.143-0.337,0.25-0.54,0.318
			C244.499,530.759,244.28,530.794,244.048,530.794z"/>
	</g>
	
		<circle display="inline" opacity="0.8" fill="#FFFFFF" stroke="#03468E" stroke-miterlimit="10" enable-background="new    " cx="501.803" cy="488.627" r="8.667"/>
	<g display="inline">
		<path d="M499.323,492.792v-7.355l-1.212,0.974v-1.008l1.188-0.961h0.973v8.352L499.323,492.792L499.323,492.792z"/>
		<path d="M503.462,488.124c0.168-0.127,0.376-0.191,0.624-0.191c0.264,0,0.481,0.043,0.653,0.127
			c0.173,0.084,0.311,0.197,0.414,0.343c0.104,0.145,0.179,0.313,0.223,0.506c0.044,0.19,0.065,0.393,0.065,0.602v1.756
			c0,0.265-0.047,0.498-0.139,0.697c-0.092,0.201-0.216,0.369-0.372,0.506c-0.155,0.138-0.336,0.238-0.54,0.308
			c-0.204,0.068-0.418,0.102-0.642,0.102c-0.225,0-0.438-0.033-0.643-0.102c-0.205-0.069-0.385-0.17-0.54-0.308
			c-0.155-0.135-0.279-0.303-0.372-0.504c-0.093-0.199-0.139-0.432-0.139-0.695v-1.393c0-0.359,0.024-0.66,0.072-0.9
			c0.048-0.237,0.107-0.45,0.18-0.635l1.548-3.899h0.961l-1.393,3.647L503.462,488.124z M504.495,489.468
			c0-0.207-0.068-0.369-0.204-0.483c-0.137-0.117-0.313-0.177-0.528-0.177c-0.144,0-0.264,0.027-0.359,0.078
			c-0.097,0.054-0.175,0.121-0.233,0.205c-0.061,0.084-0.103,0.178-0.126,0.281c-0.024,0.104-0.036,0.209-0.036,0.313v1.656
			c0,0.207,0.069,0.369,0.21,0.486c0.141,0.115,0.318,0.174,0.534,0.174s0.394-0.059,0.534-0.174c0.14-0.117,0.21-0.279,0.21-0.486
			L504.495,489.468L504.495,489.468z"/>
	</g>
	
		<circle display="inline" opacity="0.8" fill="#FFFFFF" stroke="#03468E" stroke-miterlimit="10" enable-background="new    " cx="216.137" cy="555.544" r="8.667"/>
	<g display="inline">
		<path d="M213.656,559.71v-7.356l-1.212,0.973v-1.008l1.188-0.959h0.973v8.352L213.656,559.71L213.656,559.71z"/>
		<path d="M217.651,559.71h-0.912l2.101-7.5h-1.656v0.996h-0.828v-1.848h3.444v0.778L217.651,559.71z"/>
	</g>
	
		<circle display="inline" opacity="0.8" fill="#FFFFFF" stroke="#03468E" stroke-miterlimit="10" enable-background="new    " cx="295.137" cy="555.544" r="8.667"/>
	<g display="inline">
		<path d="M292.656,559.71v-7.356l-1.211,0.973v-1.008l1.188-0.959h0.973v8.352L292.656,559.71L292.656,559.71z"/>
		<path d="M298.775,554.021c0,0.305-0.06,0.563-0.18,0.78c-0.119,0.215-0.275,0.394-0.468,0.527c0.19,0.137,0.349,0.313,0.468,0.535
			c0.12,0.219,0.18,0.479,0.18,0.784v1.535c0,0.267-0.045,0.496-0.137,0.697c-0.093,0.199-0.218,0.367-0.373,0.504
			c-0.156,0.137-0.336,0.238-0.539,0.308c-0.205,0.065-0.418,0.102-0.644,0.102s-0.438-0.035-0.644-0.102
			c-0.203-0.068-0.383-0.171-0.539-0.308c-0.155-0.137-0.278-0.305-0.373-0.504c-0.092-0.201-0.137-0.432-0.137-0.697v-1.535
			c0-0.305,0.058-0.565,0.174-0.784c0.115-0.222,0.273-0.398,0.476-0.535c-0.201-0.135-0.358-0.313-0.476-0.527
			c-0.116-0.217-0.174-0.477-0.174-0.78v-1.104c0-0.264,0.045-0.498,0.137-0.701c0.095-0.205,0.218-0.375,0.373-0.51
			c0.156-0.137,0.336-0.24,0.539-0.313c0.205-0.071,0.418-0.106,0.644-0.106s0.438,0.035,0.644,0.106
			c0.203,0.072,0.383,0.177,0.539,0.313c0.155,0.135,0.28,0.305,0.373,0.51c0.092,0.203,0.137,0.438,0.137,0.701V554.021z
			 M297.828,552.845c0-0.207-0.07-0.373-0.209-0.498c-0.141-0.123-0.318-0.186-0.535-0.186c-0.215,0-0.395,0.063-0.533,0.186
			c-0.141,0.125-0.211,0.291-0.211,0.498v1.369c0,0.207,0.07,0.375,0.211,0.504c0.139,0.127,0.318,0.191,0.533,0.191
			c0.217,0,0.395-0.064,0.535-0.191c0.139-0.129,0.209-0.297,0.209-0.504V552.845z M297.828,556.433c0-0.207-0.07-0.379-0.209-0.516
			c-0.141-0.135-0.318-0.203-0.535-0.203c-0.215,0-0.395,0.068-0.533,0.203c-0.141,0.137-0.211,0.309-0.211,0.516v1.824
			c0,0.209,0.07,0.371,0.211,0.486c0.139,0.117,0.318,0.174,0.533,0.174c0.217,0,0.395-0.057,0.535-0.174
			c0.139-0.115,0.209-0.277,0.209-0.486V556.433z"/>
	</g>
	
		<circle display="inline" opacity="0.8" fill="#FFFFFF" stroke="#03468E" stroke-miterlimit="10" enable-background="new    " cx="445.25" cy="554.961" r="8.667"/>
	<g display="inline">
		<path d="M442.769,559.126v-7.354l-1.213,0.973v-1.008l1.188-0.961h0.973v8.352L442.769,559.126L442.769,559.126z"/>
		<path d="M447.484,555.431c-0.168,0.127-0.377,0.191-0.623,0.191c-0.267,0-0.482-0.041-0.654-0.125s-0.311-0.199-0.414-0.342
			c-0.104-0.146-0.178-0.313-0.223-0.504c-0.043-0.193-0.066-0.394-0.066-0.603v-1.752c0-0.264,0.047-0.496,0.139-0.695
			c0.093-0.198,0.218-0.366,0.371-0.504c0.156-0.137,0.336-0.237,0.541-0.307c0.203-0.068,0.418-0.102,0.644-0.102
			c0.535,0,0.951,0.137,1.248,0.407c0.295,0.271,0.442,0.672,0.442,1.199v1.394c0,0.358-0.022,0.659-0.071,0.899
			c-0.05,0.24-0.107,0.451-0.181,0.635l-1.549,3.9h-0.959l1.391-3.66L447.484,555.431z M446.453,554.099
			c0,0.207,0.065,0.373,0.203,0.498c0.137,0.123,0.313,0.187,0.526,0.187c0.146,0,0.267-0.027,0.361-0.084
			c0.096-0.056,0.174-0.125,0.234-0.209c0.059-0.084,0.102-0.183,0.125-0.289c0.022-0.107,0.037-0.213,0.037-0.318v-1.656
			c0-0.207-0.07-0.368-0.212-0.483c-0.141-0.117-0.317-0.174-0.532-0.174c-0.218,0-0.396,0.057-0.535,0.174
			c-0.142,0.115-0.209,0.276-0.209,0.483L446.453,554.099L446.453,554.099z"/>
	</g>
	
		<circle display="inline" opacity="0.8" fill="#FFFFFF" stroke="#03468E" stroke-miterlimit="10" enable-background="new    " cx="186.387" cy="578.419" r="8.667"/>
	<g display="inline">
		<path d="M183.786,575.06c-0.272,0.011-0.466,0.123-0.582,0.345c-0.116,0.219-0.174,0.553-0.174,1.002v0.069l-0.948-0.168v-0.047
			c0-0.319,0.032-0.606,0.096-0.864c0.064-0.257,0.166-0.476,0.307-0.658c0.14-0.187,0.319-0.326,0.54-0.429
			c0.22-0.1,0.481-0.147,0.786-0.147c0.312,0,0.575,0.043,0.792,0.131c0.216,0.088,0.392,0.213,0.527,0.373
			c0.135,0.16,0.234,0.354,0.294,0.582c0.061,0.227,0.09,0.481,0.09,0.762c0,0.664-0.151,1.305-0.455,1.92l-1.872,3.779h2.268v0.877
			h-3.348v-0.828l2.172-4.332c0.111-0.217,0.182-0.442,0.21-0.684c0.027-0.24,0.042-0.48,0.042-0.722
			c0-0.11-0.008-0.227-0.024-0.342c-0.016-0.114-0.048-0.221-0.096-0.313c-0.048-0.092-0.122-0.166-0.222-0.224
			C184.087,575.089,183.954,575.06,183.786,575.06z"/>
		<path d="M190.025,581.06c0,0.267-0.046,0.496-0.138,0.697c-0.092,0.199-0.216,0.367-0.372,0.504
			c-0.156,0.138-0.336,0.238-0.54,0.308c-0.204,0.065-0.418,0.102-0.642,0.102c-0.225,0-0.438-0.035-0.643-0.102
			c-0.204-0.068-0.384-0.17-0.54-0.308c-0.155-0.137-0.279-0.305-0.372-0.504c-0.092-0.201-0.138-0.432-0.138-0.697v-5.268
			c0-0.264,0.046-0.498,0.138-0.701c0.093-0.205,0.217-0.375,0.372-0.51c0.156-0.137,0.336-0.24,0.54-0.313
			c0.204-0.072,0.418-0.106,0.643-0.106c0.496,0,0.901,0.139,1.218,0.42c0.315,0.279,0.474,0.684,0.474,1.211V581.06L190.025,581.06
			z M189.078,575.757c0-0.209-0.07-0.377-0.21-0.504c-0.141-0.129-0.318-0.193-0.534-0.193s-0.395,0.064-0.534,0.193
			c-0.141,0.127-0.21,0.295-0.21,0.504v5.34c0,0.207,0.069,0.375,0.21,0.505c0.14,0.129,0.318,0.19,0.534,0.19
			s0.394-0.063,0.534-0.19c0.14-0.13,0.21-0.298,0.21-0.505V575.757z"/>
	</g>
	
		<circle display="inline" opacity="0.8" fill="#FFFFFF" stroke="#03468E" stroke-miterlimit="10" enable-background="new    " cx="325.387" cy="578.419" r="8.667"/>
	<g display="inline">
		<path d="M322.786,575.06c-0.272,0.011-0.466,0.123-0.582,0.345c-0.116,0.219-0.175,0.553-0.175,1.002v0.069l-0.947-0.168v-0.047
			c0-0.319,0.032-0.606,0.096-0.864c0.064-0.257,0.166-0.476,0.307-0.658c0.141-0.187,0.32-0.326,0.541-0.429
			c0.22-0.1,0.48-0.147,0.785-0.147c0.313,0,0.576,0.043,0.793,0.131c0.215,0.088,0.392,0.213,0.526,0.373
			c0.136,0.16,0.234,0.354,0.294,0.582c0.061,0.227,0.09,0.481,0.09,0.762c0,0.664-0.15,1.305-0.455,1.92l-1.871,3.779h2.268v0.877
			h-3.348v-0.828l2.172-4.332c0.111-0.217,0.182-0.442,0.21-0.684c0.026-0.24,0.042-0.48,0.042-0.722
			c0-0.11-0.008-0.227-0.024-0.342c-0.016-0.114-0.048-0.221-0.096-0.313s-0.122-0.166-0.222-0.224
			C323.087,575.089,322.954,575.06,322.786,575.06z"/>
		<path d="M327.465,582.585v-7.356l-1.212,0.973v-1.008l1.188-0.959h0.973v8.352L327.465,582.585L327.465,582.585z"/>
	</g>
	
		<circle display="inline" opacity="0.8" fill="#FFFFFF" stroke="#03468E" stroke-miterlimit="10" enable-background="new    " cx="256.137" cy="595.836" r="8.667"/>
	<g display="inline">
		<path d="M253.536,592.479c-0.272,0.008-0.466,0.12-0.582,0.342c-0.116,0.221-0.174,0.555-0.174,1.002v0.072l-0.948-0.169v-0.049
			c0-0.317,0.032-0.606,0.096-0.862c0.064-0.257,0.166-0.478,0.307-0.66c0.14-0.185,0.319-0.326,0.54-0.426
			c0.22-0.101,0.481-0.15,0.786-0.15c0.312,0,0.575,0.045,0.792,0.133c0.216,0.088,0.392,0.211,0.527,0.371
			c0.135,0.16,0.234,0.354,0.294,0.582c0.061,0.229,0.09,0.481,0.09,0.762c0,0.664-0.151,1.305-0.455,1.92l-1.872,3.781h2.268v0.875
			h-3.348v-0.828l2.172-4.332c0.111-0.215,0.182-0.442,0.21-0.684c0.027-0.24,0.042-0.48,0.042-0.722
			c0-0.11-0.008-0.225-0.024-0.342c-0.016-0.114-0.048-0.219-0.096-0.311c-0.048-0.092-0.122-0.166-0.222-0.224
			C253.837,592.505,253.704,592.479,253.536,592.479z"/>
		<path d="M258.095,592.479c-0.272,0.008-0.466,0.12-0.582,0.342c-0.116,0.221-0.174,0.555-0.174,1.002v0.072l-0.948-0.169v-0.049
			c0-0.317,0.032-0.606,0.096-0.862c0.064-0.257,0.166-0.478,0.307-0.66c0.14-0.185,0.319-0.326,0.54-0.426
			c0.22-0.101,0.481-0.15,0.786-0.15c0.312,0,0.575,0.045,0.792,0.133c0.216,0.088,0.392,0.211,0.527,0.371
			c0.135,0.16,0.234,0.354,0.293,0.582c0.062,0.229,0.091,0.481,0.091,0.762c0,0.664-0.151,1.305-0.455,1.92l-1.872,3.781h2.268
			v0.875h-3.348v-0.828l2.172-4.332c0.111-0.215,0.182-0.442,0.21-0.684c0.027-0.24,0.042-0.48,0.042-0.722
			c0-0.11-0.008-0.225-0.024-0.342c-0.016-0.114-0.048-0.219-0.096-0.311c-0.048-0.092-0.122-0.166-0.222-0.224
			C258.397,592.505,258.263,592.479,258.095,592.479z"/>
	</g>
	
		<circle display="inline" opacity="0.8" fill="#FFFFFF" stroke="#03468E" stroke-miterlimit="10" enable-background="new    " cx="185.97" cy="605.961" r="8.667"/>
	<g display="inline">
		<path d="M183.369,602.604c-0.272,0.008-0.466,0.12-0.582,0.342c-0.116,0.221-0.174,0.555-0.174,1.002v0.072l-0.948-0.169v-0.049
			c0-0.317,0.032-0.606,0.096-0.862c0.064-0.257,0.166-0.478,0.307-0.66c0.14-0.185,0.319-0.326,0.54-0.426
			c0.22-0.101,0.481-0.15,0.786-0.15c0.312,0,0.575,0.045,0.792,0.133c0.216,0.088,0.392,0.211,0.527,0.371
			c0.135,0.16,0.234,0.354,0.294,0.582c0.061,0.229,0.09,0.481,0.09,0.762c0,0.664-0.151,1.305-0.455,1.92l-1.872,3.781h2.268v0.875
			h-3.348v-0.828l2.172-4.332c0.111-0.215,0.182-0.442,0.21-0.684c0.027-0.24,0.042-0.48,0.042-0.722
			c0-0.11-0.008-0.225-0.024-0.342c-0.016-0.114-0.048-0.219-0.096-0.311c-0.048-0.092-0.122-0.166-0.222-0.224
			C183.67,602.63,183.537,602.604,183.369,602.604z"/>
		<path d="M189.584,608.411c0,0.32-0.048,0.594-0.145,0.822c-0.096,0.227-0.222,0.411-0.378,0.557
			c-0.156,0.146-0.336,0.25-0.54,0.318c-0.204,0.067-0.422,0.102-0.653,0.102c-0.328,0-0.603-0.047-0.822-0.143
			c-0.221-0.099-0.396-0.229-0.528-0.396c-0.132-0.167-0.222-0.371-0.27-0.604c-0.048-0.236-0.064-0.498-0.048-0.787l0.947-0.133
			c-0.04,0.36-0.002,0.647,0.114,0.864c0.116,0.216,0.326,0.324,0.63,0.324c0.208,0,0.386-0.065,0.534-0.199
			c0.147-0.131,0.222-0.36,0.222-0.688v-1.26c0-0.337-0.065-0.578-0.197-0.728c-0.133-0.146-0.351-0.221-0.654-0.221h-0.372v-0.828
			h0.396c0.296,0,0.509-0.068,0.637-0.205c0.128-0.135,0.191-0.363,0.191-0.685v-1.067c0-0.104-0.01-0.207-0.029-0.313
			c-0.021-0.104-0.055-0.194-0.103-0.274c-0.048-0.08-0.116-0.146-0.204-0.191c-0.088-0.049-0.204-0.072-0.348-0.072
			c-0.28,0-0.486,0.105-0.618,0.318c-0.132,0.211-0.198,0.494-0.198,0.846l-0.947-0.133c0.008-0.271,0.052-0.524,0.132-0.762
			c0.079-0.236,0.193-0.439,0.342-0.611c0.147-0.172,0.334-0.309,0.558-0.408c0.225-0.1,0.488-0.149,0.792-0.149
			c0.296,0,0.544,0.047,0.744,0.139c0.2,0.092,0.362,0.215,0.486,0.371s0.212,0.338,0.264,0.547
			c0.052,0.207,0.078,0.424,0.078,0.648v0.852c0,0.16-0.006,0.314-0.018,0.461c-0.013,0.148-0.04,0.287-0.084,0.414
			c-0.045,0.129-0.112,0.246-0.204,0.355c-0.093,0.106-0.223,0.205-0.391,0.293v0.037c0.16,0.069,0.286,0.151,0.378,0.245
			c0.092,0.093,0.162,0.199,0.21,0.322c0.049,0.125,0.078,0.267,0.091,0.42c0.012,0.156,0.018,0.33,0.018,0.523L189.584,608.411z"/>
	</g>
	
		<circle display="inline" opacity="0.8" fill="#FFFFFF" stroke="#03468E" stroke-miterlimit="10" enable-background="new    " cx="212.97" cy="605.961" r="8.667"/>
	<g display="inline">
		<path d="M210.369,602.604c-0.272,0.008-0.466,0.12-0.582,0.342c-0.116,0.221-0.174,0.555-0.174,1.002v0.072l-0.948-0.169v-0.049
			c0-0.317,0.032-0.606,0.096-0.862c0.064-0.257,0.166-0.478,0.307-0.66c0.14-0.185,0.319-0.326,0.54-0.426
			c0.22-0.101,0.481-0.15,0.786-0.15c0.312,0,0.575,0.045,0.792,0.133c0.216,0.088,0.392,0.211,0.527,0.371
			c0.135,0.16,0.234,0.354,0.294,0.582c0.061,0.229,0.09,0.481,0.09,0.762c0,0.664-0.151,1.305-0.455,1.92l-1.872,3.781h2.268v0.875
			h-3.348v-0.828l2.172-4.332c0.111-0.215,0.182-0.442,0.21-0.684c0.027-0.24,0.042-0.48,0.042-0.722
			c0-0.11-0.008-0.225-0.024-0.342c-0.016-0.114-0.048-0.219-0.096-0.311c-0.048-0.092-0.122-0.166-0.222-0.224
			C210.67,602.63,210.537,602.604,210.369,602.604z"/>
		<path d="M216.32,608.806v1.32h-0.947v-1.32h-2.46v-0.852l1.752-6.18h0.936l-1.764,6.18h1.536v-2.316h0.947v2.316h0.589v0.852
			H216.32z"/>
	</g>
	
		<circle display="inline" opacity="0.8" fill="#FFFFFF" stroke="#03468E" stroke-miterlimit="10" enable-background="new    " cx="298.971" cy="605.961" r="8.667"/>
	<g display="inline">
		<path d="M296.369,602.604c-0.271,0.008-0.467,0.12-0.582,0.342c-0.116,0.221-0.174,0.555-0.174,1.002v0.072l-0.948-0.169v-0.049
			c0-0.317,0.032-0.606,0.096-0.862c0.064-0.257,0.166-0.478,0.308-0.66c0.14-0.185,0.318-0.326,0.539-0.426
			c0.221-0.101,0.481-0.15,0.787-0.15c0.312,0,0.574,0.045,0.791,0.133s0.393,0.211,0.527,0.371s0.234,0.354,0.294,0.582
			c0.062,0.229,0.091,0.481,0.091,0.762c0,0.664-0.152,1.305-0.455,1.92l-1.873,3.781h2.269v0.875h-3.349v-0.828l2.172-4.332
			c0.111-0.215,0.183-0.442,0.211-0.684c0.027-0.24,0.042-0.48,0.042-0.722c0-0.11-0.009-0.225-0.024-0.342
			c-0.016-0.114-0.048-0.219-0.096-0.311c-0.049-0.092-0.122-0.166-0.223-0.224C296.67,602.63,296.537,602.604,296.369,602.604z"/>
		<path d="M300.88,610.21c-0.328,0-0.601-0.049-0.815-0.15c-0.217-0.1-0.391-0.233-0.521-0.405s-0.229-0.377-0.288-0.613
			c-0.062-0.236-0.095-0.49-0.103-0.762l0.947-0.133c0,0.178,0.008,0.338,0.024,0.479c0.017,0.146,0.052,0.271,0.106,0.373
			c0.058,0.104,0.138,0.186,0.24,0.246c0.104,0.059,0.248,0.09,0.432,0.09c0.209,0,0.381-0.066,0.518-0.199
			c0.137-0.131,0.212-0.36,0.229-0.688v-2.16c0-0.471-0.231-0.707-0.695-0.707c-0.186,0-0.342,0.041-0.469,0.125
			c-0.129,0.084-0.225,0.199-0.289,0.342h-0.826v-4.271h3.238v0.852h-2.398v2.521h0.061c0.119-0.119,0.269-0.209,0.443-0.271
			c0.176-0.059,0.355-0.09,0.54-0.09c0.472,0,0.81,0.133,1.015,0.396c0.203,0.264,0.306,0.588,0.306,0.974v2.256
			c0,0.32-0.044,0.594-0.132,0.822c-0.088,0.227-0.211,0.411-0.365,0.557c-0.156,0.146-0.337,0.25-0.54,0.318
			C301.331,610.177,301.111,610.21,300.88,610.21z"/>
	</g>
	
		<circle display="inline" opacity="0.8" fill="#FFFFFF" stroke="#03468E" stroke-miterlimit="10" enable-background="new    " cx="324.971" cy="605.961" r="8.667"/>
	<g display="inline">
		<path d="M322.369,602.604c-0.271,0.008-0.467,0.12-0.582,0.342c-0.116,0.221-0.174,0.555-0.174,1.002v0.072l-0.948-0.169v-0.049
			c0-0.317,0.032-0.606,0.096-0.862c0.064-0.257,0.166-0.478,0.308-0.66c0.14-0.185,0.318-0.326,0.539-0.426
			c0.221-0.101,0.481-0.15,0.787-0.15c0.312,0,0.574,0.045,0.791,0.133s0.393,0.211,0.527,0.371s0.234,0.354,0.294,0.582
			c0.062,0.229,0.091,0.481,0.091,0.762c0,0.664-0.152,1.305-0.455,1.92l-1.873,3.781h2.269v0.875h-3.349v-0.828l2.172-4.332
			c0.111-0.215,0.183-0.442,0.211-0.684c0.027-0.24,0.042-0.48,0.042-0.722c0-0.11-0.009-0.225-0.024-0.342
			c-0.016-0.114-0.048-0.219-0.096-0.311c-0.049-0.092-0.122-0.166-0.223-0.224C322.67,602.63,322.537,602.604,322.369,602.604z"/>
		<path d="M326.628,605.458c0.168-0.127,0.376-0.191,0.624-0.191c0.264,0,0.48,0.044,0.652,0.128
			c0.174,0.084,0.312,0.196,0.414,0.342c0.104,0.145,0.18,0.313,0.224,0.506c0.044,0.19,0.065,0.393,0.065,0.602v1.756
			c0,0.265-0.047,0.498-0.139,0.697c-0.092,0.201-0.216,0.369-0.371,0.506c-0.156,0.137-0.337,0.238-0.541,0.308
			c-0.203,0.068-0.418,0.102-0.642,0.102c-0.226,0-0.438-0.033-0.644-0.102c-0.205-0.069-0.383-0.17-0.539-0.308
			c-0.155-0.135-0.279-0.303-0.373-0.504c-0.092-0.199-0.137-0.432-0.137-0.695v-1.393c0-0.359,0.023-0.66,0.071-0.9
			c0.048-0.237,0.106-0.45,0.181-0.635l1.547-3.9h0.961l-1.393,3.648L326.628,605.458z M327.661,606.802
			c0-0.207-0.068-0.369-0.204-0.483c-0.137-0.117-0.313-0.177-0.527-0.177c-0.145,0-0.265,0.027-0.361,0.078
			c-0.096,0.054-0.174,0.121-0.232,0.205c-0.061,0.084-0.104,0.178-0.126,0.281c-0.024,0.104-0.036,0.209-0.036,0.313v1.656
			c0,0.207,0.069,0.369,0.21,0.486c0.14,0.115,0.318,0.174,0.534,0.174s0.395-0.059,0.534-0.174c0.14-0.117,0.21-0.279,0.21-0.486
			L327.661,606.802L327.661,606.802z"/>
	</g>
</g>
<g id="Layer_2">
	
		<circle opacity="0.8" fill="#FFFFFF" stroke="#03468E" stroke-miterlimit="10" enable-background="new    " cx="329.473" cy="76.143" r="8.667"/>
	<g>
		<path d="M325.047,80.724v-7.356l-1.213,0.972v-1.008l1.188-0.96h0.973v8.352H325.047z"/>
		<path d="M331.166,79.2c0,0.264-0.047,0.496-0.139,0.696c-0.092,0.2-0.215,0.368-0.371,0.504c-0.156,0.136-0.336,0.238-0.541,0.306
			c-0.203,0.068-0.418,0.102-0.641,0.102c-0.225,0-0.439-0.034-0.643-0.102c-0.205-0.068-0.385-0.17-0.541-0.306
			c-0.154-0.136-0.279-0.304-0.371-0.504c-0.092-0.2-0.139-0.432-0.139-0.696v-5.268c0-0.264,0.047-0.498,0.139-0.702
			s0.217-0.374,0.371-0.51c0.156-0.136,0.336-0.24,0.541-0.312c0.203-0.072,0.418-0.108,0.643-0.108c0.496,0,0.9,0.14,1.217,0.42
			s0.475,0.684,0.475,1.212V79.2z M330.219,73.896c0-0.208-0.07-0.376-0.211-0.504s-0.318-0.192-0.533-0.192
			c-0.217,0-0.395,0.064-0.535,0.192s-0.209,0.296-0.209,0.504v5.34c0,0.208,0.068,0.376,0.209,0.504s0.318,0.192,0.535,0.192
			c0.215,0,0.393-0.064,0.533-0.192s0.211-0.296,0.211-0.504V73.896z"/>
		<path d="M334.166,80.724v-7.356l-1.211,0.972v-1.008l1.188-0.96h0.973v8.352H334.166z"/>
	</g>
	
		<circle opacity="0.8" fill="#FFFFFF" stroke="#03468E" stroke-miterlimit="10" enable-background="new    " cx="502.306" cy="274.56" r="8.667"/>
	<g>
		<path d="M497.879,279.141v-7.356l-1.211,0.972v-1.008l1.188-0.96h0.973v8.352H497.879z"/>
		<path d="M503.998,277.617c0,0.264-0.045,0.496-0.137,0.696c-0.092,0.2-0.217,0.368-0.373,0.504
			c-0.156,0.136-0.336,0.238-0.539,0.306c-0.205,0.068-0.418,0.102-0.643,0.102s-0.438-0.034-0.643-0.102
			c-0.203-0.068-0.383-0.17-0.539-0.306c-0.156-0.136-0.279-0.304-0.373-0.504c-0.092-0.2-0.137-0.432-0.137-0.696v-5.268
			c0-0.264,0.045-0.498,0.137-0.702c0.094-0.204,0.217-0.374,0.373-0.51s0.336-0.24,0.539-0.312
			c0.205-0.072,0.418-0.108,0.643-0.108c0.496,0,0.902,0.14,1.219,0.42c0.314,0.28,0.473,0.684,0.473,1.212V277.617z
			 M503.051,272.313c0-0.208-0.07-0.376-0.209-0.504c-0.141-0.128-0.318-0.192-0.535-0.192c-0.215,0-0.395,0.064-0.533,0.192
			c-0.141,0.128-0.211,0.296-0.211,0.504v5.34c0,0.208,0.07,0.376,0.211,0.504c0.139,0.128,0.318,0.192,0.533,0.192
			c0.217,0,0.395-0.064,0.535-0.192c0.139-0.128,0.209-0.296,0.209-0.504V272.313z"/>
		<path d="M506.879,271.617c-0.271,0.008-0.465,0.122-0.582,0.342c-0.115,0.22-0.174,0.554-0.174,1.002v0.072l-0.947-0.168v-0.048
			c0-0.32,0.031-0.607,0.096-0.864c0.064-0.256,0.166-0.476,0.307-0.66c0.139-0.184,0.318-0.326,0.539-0.426s0.482-0.15,0.787-0.15
			c0.311,0,0.574,0.044,0.791,0.132s0.393,0.212,0.527,0.372c0.137,0.16,0.234,0.354,0.295,0.582s0.09,0.482,0.09,0.762
			c0,0.664-0.152,1.304-0.455,1.92l-1.873,3.78h2.268v0.876h-3.348v-0.828l2.172-4.332c0.111-0.216,0.182-0.444,0.211-0.684
			c0.027-0.24,0.041-0.48,0.041-0.72c0-0.112-0.008-0.226-0.023-0.342c-0.016-0.116-0.049-0.22-0.096-0.312
			c-0.049-0.092-0.123-0.166-0.223-0.222S507.047,271.617,506.879,271.617z"/>
	</g>
	
		<circle opacity="0.8" fill="#FFFFFF" stroke="#03468E" stroke-miterlimit="10" enable-background="new    " cx="268.14" cy="403.143" r="8.667"/>
	<g>
		<path d="M263.713,407.724v-7.355l-1.211,0.972v-1.009l1.188-0.959h0.973v8.352H263.713z"/>
		<path d="M269.832,406.2c0,0.264-0.045,0.496-0.137,0.695c-0.092,0.2-0.217,0.368-0.373,0.504
			c-0.156,0.137-0.336,0.238-0.539,0.307c-0.205,0.067-0.418,0.102-0.643,0.102s-0.438-0.034-0.643-0.102
			c-0.203-0.068-0.383-0.17-0.539-0.307c-0.156-0.136-0.279-0.304-0.373-0.504c-0.092-0.199-0.137-0.432-0.137-0.695v-5.269
			c0-0.265,0.045-0.498,0.137-0.702c0.094-0.204,0.217-0.373,0.373-0.51s0.336-0.24,0.539-0.313
			c0.205-0.072,0.418-0.107,0.643-0.107c0.496,0,0.902,0.14,1.219,0.42c0.314,0.28,0.473,0.684,0.473,1.212V406.2z M268.885,400.896
			c0-0.208-0.07-0.376-0.209-0.504c-0.141-0.128-0.318-0.191-0.535-0.191c-0.215,0-0.395,0.063-0.533,0.191
			c-0.141,0.128-0.211,0.296-0.211,0.504v5.34c0,0.209,0.07,0.377,0.211,0.504c0.139,0.129,0.318,0.192,0.533,0.192
			c0.217,0,0.395-0.063,0.535-0.192c0.139-0.127,0.209-0.295,0.209-0.504V400.896z"/>
		<path d="M274.369,406.008c0,0.319-0.047,0.594-0.145,0.821c-0.096,0.229-0.221,0.414-0.377,0.559s-0.336,0.25-0.541,0.318
			c-0.203,0.067-0.422,0.102-0.652,0.102c-0.328,0-0.604-0.048-0.822-0.145c-0.221-0.096-0.396-0.228-0.529-0.396
			c-0.131-0.168-0.221-0.37-0.27-0.606c-0.047-0.235-0.064-0.498-0.047-0.785l0.947-0.133c-0.041,0.36-0.002,0.648,0.113,0.864
			c0.117,0.216,0.326,0.324,0.631,0.324c0.207,0,0.385-0.065,0.533-0.198c0.148-0.132,0.223-0.361,0.223-0.689v-1.26
			c0-0.336-0.066-0.578-0.197-0.727c-0.133-0.148-0.352-0.223-0.654-0.223h-0.373v-0.827h0.396c0.295,0,0.508-0.067,0.637-0.204
			c0.127-0.137,0.191-0.364,0.191-0.684v-1.068c0-0.104-0.01-0.208-0.029-0.313c-0.021-0.104-0.055-0.195-0.104-0.275
			c-0.047-0.08-0.115-0.145-0.203-0.192s-0.205-0.071-0.348-0.071c-0.281,0-0.486,0.105-0.619,0.317
			c-0.131,0.212-0.197,0.494-0.197,0.847l-0.947-0.133c0.008-0.271,0.051-0.525,0.131-0.762s0.193-0.439,0.342-0.612
			c0.148-0.172,0.334-0.308,0.559-0.407c0.225-0.101,0.488-0.15,0.791-0.15c0.297,0,0.545,0.046,0.744,0.138
			c0.201,0.093,0.363,0.216,0.486,0.372c0.125,0.156,0.213,0.338,0.264,0.546c0.053,0.208,0.078,0.425,0.078,0.647v0.853
			c0,0.16-0.006,0.314-0.018,0.462c-0.012,0.148-0.039,0.286-0.084,0.414c-0.045,0.129-0.111,0.246-0.203,0.354
			c-0.094,0.109-0.223,0.207-0.391,0.295v0.035c0.16,0.072,0.285,0.154,0.377,0.246c0.092,0.093,0.162,0.201,0.211,0.324
			c0.049,0.125,0.078,0.264,0.09,0.42s0.018,0.33,0.018,0.522L274.369,406.008z"/>
	</g>
	
		<circle opacity="0.8" fill="#FFFFFF" stroke="#03468E" stroke-miterlimit="10" enable-background="new    " cx="15.807" cy="416.143" r="8.667"/>
	<g>
		<path d="M11.38,420.724v-7.355l-1.212,0.972v-1.009l1.188-0.959h0.973v8.352H11.38z"/>
		<path d="M17.5,419.2c0,0.264-0.046,0.496-0.138,0.695c-0.092,0.2-0.216,0.368-0.372,0.504c-0.156,0.137-0.336,0.238-0.54,0.307
			c-0.204,0.067-0.418,0.102-0.642,0.102c-0.225,0-0.438-0.034-0.643-0.102c-0.204-0.068-0.384-0.17-0.54-0.307
			c-0.155-0.136-0.279-0.304-0.372-0.504c-0.092-0.199-0.138-0.432-0.138-0.695v-5.269c0-0.265,0.046-0.498,0.138-0.702
			c0.093-0.204,0.217-0.373,0.372-0.51c0.156-0.137,0.336-0.24,0.54-0.313s0.418-0.107,0.643-0.107c0.496,0,0.901,0.14,1.218,0.42
			c0.315,0.28,0.474,0.684,0.474,1.212V419.2z M16.552,413.896c0-0.208-0.07-0.376-0.21-0.504c-0.141-0.128-0.318-0.191-0.534-0.191
			s-0.395,0.063-0.534,0.191c-0.141,0.128-0.21,0.296-0.21,0.504v5.34c0,0.209,0.069,0.377,0.21,0.504
			c0.14,0.129,0.318,0.192,0.534,0.192s0.394-0.063,0.534-0.192c0.14-0.127,0.21-0.295,0.21-0.504V413.896z"/>
		<path d="M21.772,419.403v1.32h-0.947v-1.32h-2.46v-0.852l1.752-6.18h0.936l-1.764,6.18h1.536v-2.316h0.947v2.316h0.589v0.852
			H21.772z"/>
	</g>
	
		<circle opacity="0.8" fill="#FFFFFF" stroke="#03468E" stroke-miterlimit="10" enable-background="new    " cx="437.14" cy="415.81" r="8.667"/>
	<g>
		<path d="M432.713,420.391v-7.356l-1.211,0.973v-1.008l1.188-0.961h0.973v8.353H432.713z"/>
		<path d="M438.832,418.866c0,0.265-0.045,0.496-0.137,0.696s-0.217,0.368-0.373,0.504s-0.336,0.238-0.539,0.306
			c-0.205,0.068-0.418,0.103-0.643,0.103s-0.438-0.034-0.643-0.103c-0.203-0.067-0.383-0.17-0.539-0.306s-0.279-0.304-0.373-0.504
			c-0.092-0.2-0.137-0.432-0.137-0.696v-5.268c0-0.264,0.045-0.498,0.137-0.702c0.094-0.204,0.217-0.374,0.373-0.51
			s0.336-0.24,0.539-0.312c0.205-0.072,0.418-0.108,0.643-0.108c0.496,0,0.902,0.14,1.219,0.42c0.314,0.28,0.473,0.685,0.473,1.212
			V418.866z M437.885,413.563c0-0.208-0.07-0.376-0.209-0.504c-0.141-0.128-0.318-0.192-0.535-0.192
			c-0.215,0-0.395,0.064-0.533,0.192c-0.141,0.128-0.211,0.296-0.211,0.504v5.341c0,0.207,0.07,0.375,0.211,0.504
			c0.139,0.127,0.318,0.191,0.533,0.191c0.217,0,0.395-0.064,0.535-0.191c0.139-0.129,0.209-0.297,0.209-0.504V413.563z"/>
		<path d="M441.666,420.475c-0.328,0-0.602-0.05-0.816-0.149c-0.217-0.101-0.391-0.236-0.521-0.408
			c-0.133-0.172-0.229-0.377-0.289-0.612s-0.094-0.49-0.102-0.763l0.947-0.131c0,0.176,0.008,0.336,0.025,0.479
			c0.016,0.144,0.051,0.269,0.107,0.372s0.137,0.186,0.24,0.246s0.248,0.09,0.432,0.09c0.207,0,0.379-0.066,0.516-0.198
			s0.213-0.362,0.229-0.69v-2.159c0-0.472-0.232-0.708-0.695-0.708c-0.186,0-0.342,0.042-0.469,0.126
			c-0.129,0.084-0.225,0.198-0.289,0.342h-0.826v-4.272h3.238v0.853h-2.398v2.521h0.059c0.121-0.121,0.27-0.211,0.445-0.271
			s0.355-0.09,0.539-0.09c0.473,0,0.811,0.132,1.014,0.396c0.205,0.264,0.307,0.588,0.307,0.973v2.256
			c0,0.32-0.045,0.594-0.133,0.822c-0.088,0.228-0.209,0.414-0.365,0.558s-0.336,0.25-0.539,0.317
			C442.115,420.44,441.896,420.475,441.666,420.475z"/>
	</g>
	
		<circle opacity="0.8" fill="#FFFFFF" stroke="#03468E" stroke-miterlimit="10" enable-background="new    " cx="15.806" cy="452.477" r="8.667"/>
	<g>
		<path d="M11.38,457.058v-7.355l-1.212,0.972v-1.009l1.188-0.959h0.973v8.352H11.38z"/>
		<path d="M17.499,455.534c0,0.264-0.046,0.496-0.138,0.695c-0.092,0.2-0.216,0.368-0.372,0.504
			c-0.156,0.137-0.336,0.238-0.54,0.307c-0.204,0.067-0.418,0.102-0.642,0.102c-0.225,0-0.438-0.034-0.643-0.102
			c-0.204-0.068-0.384-0.17-0.54-0.307c-0.155-0.136-0.279-0.304-0.372-0.504c-0.092-0.199-0.138-0.432-0.138-0.695v-5.269
			c0-0.265,0.046-0.498,0.138-0.702c0.093-0.204,0.217-0.373,0.372-0.51c0.156-0.137,0.336-0.24,0.54-0.313s0.418-0.107,0.643-0.107
			c0.496,0,0.901,0.14,1.218,0.42c0.315,0.28,0.474,0.684,0.474,1.212V455.534z M16.552,450.229c0-0.208-0.07-0.376-0.21-0.504
			c-0.141-0.128-0.318-0.191-0.534-0.191s-0.395,0.063-0.534,0.191c-0.141,0.128-0.21,0.296-0.21,0.504v5.34
			c0,0.209,0.069,0.377,0.21,0.504c0.14,0.129,0.318,0.192,0.534,0.192s0.394-0.063,0.534-0.192c0.14-0.127,0.21-0.295,0.21-0.504
			V450.229z"/>
		<path d="M20.08,452.39c0.168-0.128,0.376-0.191,0.624-0.191c0.264,0,0.481,0.041,0.653,0.126c0.173,0.084,0.311,0.198,0.414,0.343
			c0.104,0.145,0.179,0.313,0.223,0.505s0.065,0.394,0.065,0.602v1.757c0,0.264-0.046,0.496-0.138,0.697s-0.216,0.369-0.372,0.506
			c-0.156,0.136-0.336,0.238-0.54,0.307c-0.204,0.067-0.418,0.102-0.642,0.102c-0.225,0-0.438-0.034-0.643-0.102
			c-0.204-0.068-0.384-0.17-0.54-0.307c-0.155-0.136-0.279-0.304-0.372-0.504c-0.092-0.199-0.138-0.432-0.138-0.695v-1.393
			c0-0.359,0.024-0.66,0.072-0.9s0.107-0.451,0.18-0.636l1.548-3.899h0.96l-1.392,3.647L20.08,452.39z M21.112,453.733
			c0-0.207-0.068-0.369-0.204-0.486c-0.137-0.115-0.313-0.174-0.528-0.174c-0.144,0-0.264,0.026-0.36,0.078
			c-0.096,0.053-0.174,0.12-0.233,0.204c-0.061,0.084-0.103,0.179-0.126,0.282c-0.024,0.104-0.036,0.208-0.036,0.313v1.655
			c0,0.208,0.069,0.37,0.21,0.486c0.14,0.116,0.318,0.174,0.534,0.174s0.394-0.058,0.534-0.174c0.14-0.116,0.21-0.278,0.21-0.486
			V453.733z"/>
	</g>
	
		<circle opacity="0.8" fill="#FFFFFF" stroke="#03468E" stroke-miterlimit="10" enable-background="new    " cx="78.806" cy="452.143" r="8.667"/>
	<g>
		<path d="M74.38,456.724v-7.355l-1.212,0.972v-1.009l1.188-0.959h0.973v8.352H74.38z"/>
		<path d="M80.499,455.2c0,0.264-0.046,0.496-0.138,0.695c-0.092,0.2-0.216,0.368-0.372,0.504c-0.156,0.137-0.336,0.238-0.54,0.307
			c-0.204,0.067-0.418,0.102-0.642,0.102c-0.225,0-0.438-0.034-0.643-0.102c-0.204-0.068-0.384-0.17-0.54-0.307
			c-0.155-0.136-0.279-0.304-0.372-0.504c-0.092-0.199-0.138-0.432-0.138-0.695v-5.269c0-0.265,0.046-0.498,0.138-0.702
			c0.093-0.204,0.217-0.373,0.372-0.51c0.156-0.137,0.336-0.24,0.54-0.313s0.418-0.107,0.643-0.107c0.496,0,0.901,0.14,1.218,0.42
			c0.315,0.28,0.474,0.684,0.474,1.212V455.2z M79.552,449.896c0-0.208-0.07-0.376-0.21-0.504c-0.141-0.128-0.318-0.191-0.534-0.191
			s-0.395,0.063-0.534,0.191c-0.141,0.128-0.21,0.296-0.21,0.504v5.34c0,0.209,0.069,0.377,0.21,0.504
			c0.14,0.129,0.318,0.192,0.534,0.192s0.394-0.063,0.534-0.192c0.14-0.127,0.21-0.295,0.21-0.504V449.896z"/>
		<path d="M82.936,456.724h-0.912l2.101-7.5h-1.656v0.996H81.64v-1.848h3.444v0.779L82.936,456.724z"/>
	</g>
	
		<circle opacity="0.8" fill="#FFFFFF" stroke="#03468E" stroke-miterlimit="10" enable-background="new    " cx="104.806" cy="452.476" r="8.667"/>
	<g>
		<path d="M100.38,457.057V449.7l-1.212,0.973v-1.008l1.188-0.961h0.973v8.353H100.38z"/>
		<path d="M106.499,455.532c0,0.265-0.046,0.496-0.138,0.696s-0.216,0.368-0.372,0.504s-0.336,0.238-0.54,0.306
			c-0.204,0.068-0.418,0.103-0.642,0.103c-0.225,0-0.438-0.034-0.643-0.103c-0.204-0.067-0.384-0.17-0.54-0.306
			c-0.155-0.136-0.279-0.304-0.372-0.504c-0.092-0.2-0.138-0.432-0.138-0.696v-5.268c0-0.264,0.046-0.498,0.138-0.702
			c0.093-0.204,0.217-0.374,0.372-0.51c0.156-0.136,0.336-0.24,0.54-0.312c0.204-0.072,0.418-0.108,0.643-0.108
			c0.496,0,0.901,0.14,1.218,0.42c0.315,0.28,0.474,0.685,0.474,1.212V455.532z M105.552,450.229c0-0.208-0.07-0.376-0.21-0.504
			c-0.141-0.128-0.318-0.192-0.534-0.192s-0.395,0.064-0.534,0.192c-0.141,0.128-0.21,0.296-0.21,0.504v5.341
			c0,0.207,0.069,0.375,0.21,0.504c0.14,0.127,0.318,0.191,0.534,0.191s0.394-0.064,0.534-0.191c0.14-0.129,0.21-0.297,0.21-0.504
			V450.229z"/>
		<path d="M111.06,451.368c0,0.305-0.06,0.564-0.18,0.78s-0.276,0.392-0.468,0.528c0.191,0.137,0.348,0.314,0.468,0.533
			c0.12,0.221,0.18,0.482,0.18,0.787v1.535c0,0.265-0.046,0.496-0.138,0.696s-0.216,0.368-0.372,0.504s-0.336,0.238-0.54,0.306
			c-0.204,0.068-0.418,0.103-0.642,0.103c-0.225,0-0.438-0.034-0.643-0.103c-0.204-0.067-0.384-0.17-0.54-0.306
			c-0.155-0.136-0.279-0.304-0.372-0.504c-0.092-0.2-0.138-0.432-0.138-0.696v-1.535c0-0.305,0.058-0.566,0.174-0.787
			c0.116-0.219,0.274-0.396,0.475-0.533c-0.2-0.137-0.358-0.313-0.475-0.528s-0.174-0.476-0.174-0.78v-1.104
			c0-0.264,0.046-0.498,0.138-0.702c0.093-0.204,0.217-0.374,0.372-0.51c0.156-0.136,0.336-0.24,0.54-0.312
			c0.204-0.072,0.418-0.108,0.643-0.108c0.224,0,0.438,0.036,0.642,0.108c0.204,0.071,0.384,0.176,0.54,0.312s0.28,0.306,0.372,0.51
			s0.138,0.438,0.138,0.702V451.368z M110.112,450.192c0-0.207-0.07-0.373-0.21-0.498c-0.141-0.123-0.318-0.186-0.534-0.186
			s-0.395,0.063-0.534,0.186c-0.141,0.125-0.21,0.291-0.21,0.498v1.368c0,0.208,0.069,0.376,0.21,0.504
			c0.14,0.128,0.318,0.192,0.534,0.192s0.394-0.064,0.534-0.192c0.14-0.128,0.21-0.296,0.21-0.504V450.192z M110.112,453.78
			c0-0.207-0.07-0.379-0.21-0.516c-0.141-0.136-0.318-0.204-0.534-0.204s-0.395,0.068-0.534,0.204
			c-0.141,0.137-0.21,0.309-0.21,0.516v1.824c0,0.209,0.069,0.37,0.21,0.486c0.14,0.115,0.318,0.174,0.534,0.174
			s0.394-0.059,0.534-0.174c0.14-0.116,0.21-0.277,0.21-0.486V453.78z"/>
	</g>
	
		<circle opacity="0.8" fill="#FFFFFF" stroke="#03468E" stroke-miterlimit="10" enable-background="new    " cx="160.473" cy="452.476" r="8.667"/>
	<g>
		<path d="M156.047,457.057V449.7l-1.212,0.973v-1.008l1.188-0.961h0.973v8.353H156.047z"/>
		<path d="M162.166,455.532c0,0.265-0.046,0.496-0.138,0.696s-0.216,0.368-0.372,0.504s-0.336,0.238-0.54,0.306
			c-0.204,0.068-0.418,0.103-0.642,0.103c-0.225,0-0.438-0.034-0.643-0.103c-0.204-0.067-0.384-0.17-0.54-0.306
			c-0.155-0.136-0.279-0.304-0.372-0.504c-0.092-0.2-0.138-0.432-0.138-0.696v-5.268c0-0.264,0.046-0.498,0.138-0.702
			c0.093-0.204,0.217-0.374,0.372-0.51c0.156-0.136,0.336-0.24,0.54-0.312c0.204-0.072,0.418-0.108,0.643-0.108
			c0.496,0,0.901,0.14,1.218,0.42c0.315,0.28,0.474,0.685,0.474,1.212V455.532z M161.219,450.229c0-0.208-0.07-0.376-0.21-0.504
			c-0.141-0.128-0.318-0.192-0.534-0.192s-0.395,0.064-0.534,0.192c-0.141,0.128-0.21,0.296-0.21,0.504v5.341
			c0,0.207,0.069,0.375,0.21,0.504c0.14,0.127,0.318,0.191,0.534,0.191s0.394-0.064,0.534-0.191c0.14-0.129,0.21-0.297,0.21-0.504
			V450.229z"/>
		<path d="M165.323,453.36c-0.168,0.129-0.377,0.192-0.624,0.192c-0.265,0-0.482-0.042-0.654-0.126s-0.311-0.198-0.414-0.342
			c-0.104-0.145-0.178-0.313-0.222-0.504c-0.044-0.192-0.066-0.393-0.066-0.601v-1.752c0-0.264,0.046-0.495,0.138-0.696
			c0.093-0.199,0.217-0.367,0.372-0.504c0.156-0.136,0.336-0.238,0.54-0.306s0.418-0.103,0.643-0.103
			c0.535,0,0.952,0.137,1.248,0.408c0.296,0.272,0.443,0.672,0.443,1.2v1.392c0,0.36-0.023,0.66-0.071,0.9
			c-0.049,0.24-0.108,0.452-0.181,0.637l-1.548,3.899h-0.96l1.392-3.66L165.323,453.36z M164.291,452.028
			c0,0.209,0.067,0.375,0.204,0.498c0.136,0.125,0.312,0.186,0.527,0.186c0.145,0,0.265-0.027,0.36-0.084
			c0.096-0.055,0.174-0.125,0.234-0.209c0.06-0.084,0.102-0.18,0.126-0.288c0.023-0.108,0.036-0.214,0.036-0.318v-1.655
			c0-0.209-0.07-0.371-0.21-0.486c-0.141-0.116-0.318-0.174-0.534-0.174s-0.395,0.058-0.534,0.174
			c-0.141,0.115-0.21,0.277-0.21,0.486V452.028z"/>
	</g>
	
		<circle opacity="0.8" fill="#FFFFFF" stroke="#03468E" stroke-miterlimit="10" enable-background="new    " cx="228.89" cy="462.643" r="8.667"/>
	<g>
		<path d="M224.463,467.224v-7.355l-1.212,0.972v-1.009l1.188-0.959h0.973v8.352H224.463z"/>
		<path d="M229.023,467.224v-7.355l-1.212,0.972v-1.009l1.188-0.959h0.973v8.352H229.023z"/>
		<path d="M235.143,465.7c0,0.264-0.046,0.496-0.138,0.695c-0.092,0.2-0.216,0.368-0.372,0.504c-0.156,0.137-0.336,0.238-0.54,0.307
			c-0.204,0.067-0.418,0.102-0.642,0.102c-0.225,0-0.438-0.034-0.643-0.102c-0.204-0.068-0.384-0.17-0.54-0.307
			c-0.155-0.136-0.279-0.304-0.372-0.504c-0.092-0.199-0.138-0.432-0.138-0.695v-5.269c0-0.265,0.046-0.498,0.138-0.702
			c0.093-0.204,0.217-0.373,0.372-0.51c0.156-0.137,0.336-0.24,0.54-0.313s0.418-0.107,0.643-0.107c0.496,0,0.901,0.14,1.218,0.42
			c0.315,0.28,0.474,0.684,0.474,1.212V465.7z M234.196,460.396c0-0.208-0.07-0.376-0.21-0.504
			c-0.141-0.128-0.318-0.191-0.534-0.191s-0.395,0.063-0.534,0.191c-0.141,0.128-0.21,0.296-0.21,0.504v5.34
			c0,0.209,0.069,0.377,0.21,0.504c0.14,0.129,0.318,0.192,0.534,0.192s0.394-0.063,0.534-0.192c0.14-0.127,0.21-0.295,0.21-0.504
			V460.396z"/>
	</g>
	
		<circle opacity="0.8" fill="#FFFFFF" stroke="#03468E" stroke-miterlimit="10" enable-background="new    " cx="260.64" cy="486.893" r="8.667"/>
	<g>
		<path d="M256.213,491.474v-7.355l-1.212,0.972v-1.009l1.188-0.959h0.973v8.352H256.213z"/>
		<path d="M260.773,491.474v-7.355l-1.213,0.972v-1.009l1.188-0.959h0.973v8.352H260.773z"/>
		<path d="M265.334,491.474v-7.355l-1.213,0.972v-1.009l1.188-0.959h0.973v8.352H265.334z"/>
	</g>
	
		<circle opacity="0.8" fill="#FFFFFF" stroke="#03468E" stroke-miterlimit="10" enable-background="new    " cx="291.64" cy="462.393" r="8.667"/>
	<g>
		<path d="M287.213,466.974v-7.355l-1.211,0.972v-1.009l1.188-0.959h0.973v8.352H287.213z"/>
		<path d="M291.773,466.974v-7.355l-1.213,0.972v-1.009l1.188-0.959h0.973v8.352H291.773z"/>
		<path d="M296.213,459.45c-0.271,0.008-0.465,0.121-0.582,0.342c-0.115,0.22-0.174,0.554-0.174,1.002v0.072l-0.947-0.168v-0.049
			c0-0.32,0.031-0.607,0.096-0.863s0.166-0.477,0.307-0.66c0.139-0.184,0.318-0.326,0.539-0.426c0.221-0.101,0.482-0.15,0.787-0.15
			c0.311,0,0.574,0.044,0.791,0.132s0.393,0.212,0.527,0.372c0.137,0.16,0.234,0.354,0.295,0.582s0.09,0.482,0.09,0.762
			c0,0.664-0.152,1.305-0.455,1.92l-1.873,3.78h2.268v0.876h-3.348v-0.828l2.172-4.332c0.111-0.216,0.182-0.443,0.211-0.684
			c0.027-0.24,0.041-0.48,0.041-0.721c0-0.111-0.008-0.226-0.023-0.342c-0.016-0.115-0.049-0.22-0.096-0.312
			c-0.049-0.093-0.123-0.166-0.223-0.222C296.516,459.478,296.381,459.45,296.213,459.45z"/>
	</g>
	
		<circle opacity="0.8" fill="#FFFFFF" stroke="#03468E" stroke-miterlimit="10" enable-background="new    " cx="390.64" cy="453.81" r="8.667"/>
	<g>
		<path d="M386.213,458.391v-7.356l-1.211,0.973v-1.008l1.188-0.961h0.973v8.353H386.213z"/>
		<path d="M390.773,458.391v-7.356l-1.213,0.973v-1.008l1.188-0.961h0.973v8.353H390.773z"/>
		<path d="M396.869,456.675c0,0.32-0.047,0.594-0.145,0.822c-0.096,0.228-0.221,0.414-0.377,0.558s-0.336,0.25-0.541,0.317
			c-0.203,0.068-0.422,0.103-0.652,0.103c-0.328,0-0.604-0.048-0.822-0.144c-0.221-0.096-0.396-0.229-0.529-0.396
			c-0.131-0.168-0.221-0.37-0.27-0.605c-0.047-0.236-0.064-0.498-0.047-0.787l0.947-0.131c-0.041,0.359-0.002,0.647,0.113,0.863
			c0.117,0.217,0.326,0.324,0.631,0.324c0.207,0,0.385-0.066,0.533-0.198s0.223-0.362,0.223-0.69v-1.26
			c0-0.336-0.066-0.578-0.197-0.726c-0.133-0.147-0.352-0.222-0.654-0.222h-0.373v-0.828h0.396c0.295,0,0.508-0.068,0.637-0.204
			c0.127-0.136,0.191-0.364,0.191-0.685v-1.067c0-0.104-0.01-0.208-0.029-0.312c-0.021-0.104-0.055-0.197-0.104-0.276
			c-0.047-0.08-0.115-0.144-0.203-0.192c-0.088-0.048-0.205-0.072-0.348-0.072c-0.281,0-0.486,0.106-0.619,0.318
			c-0.131,0.212-0.197,0.494-0.197,0.846l-0.947-0.132c0.008-0.271,0.051-0.526,0.131-0.762s0.193-0.44,0.342-0.612
			s0.334-0.308,0.559-0.408c0.225-0.1,0.488-0.149,0.791-0.149c0.297,0,0.545,0.046,0.744,0.138
			c0.201,0.092,0.363,0.217,0.486,0.372c0.125,0.156,0.213,0.338,0.264,0.546c0.053,0.209,0.078,0.424,0.078,0.648v0.852
			c0,0.16-0.006,0.314-0.018,0.463c-0.012,0.147-0.039,0.285-0.084,0.413s-0.111,0.246-0.203,0.354
			c-0.094,0.107-0.223,0.205-0.391,0.293v0.037c0.16,0.072,0.285,0.154,0.377,0.246s0.162,0.199,0.211,0.324
			c0.049,0.123,0.078,0.264,0.09,0.42c0.012,0.155,0.018,0.33,0.018,0.521L396.869,456.675z"/>
	</g>
	
		<circle opacity="0.8" fill="#FFFFFF" stroke="#03468E" stroke-miterlimit="10" enable-background="new    " cx="15.39" cy="489.518" r="8.667"/>
	<g>
		<path d="M10.963,494.099v-7.355l-1.212,0.972v-1.009l1.188-0.959h0.973v8.352H10.963z"/>
		<path d="M15.523,494.099v-7.355l-1.212,0.972v-1.009l1.188-0.959h0.973v8.352H15.523z"/>
		<path d="M21.355,492.778v1.32h-0.947v-1.32h-2.46v-0.852l1.752-6.18h0.936l-1.764,6.18h1.536v-2.316h0.947v2.316h0.589v0.852
			H21.355z"/>
	</g>
	
		<circle opacity="0.8" fill="#FFFFFF" stroke="#03468E" stroke-miterlimit="10" enable-background="new    " cx="241.89" cy="526.893" r="8.667"/>
	<g>
		<path d="M237.463,531.474v-7.355l-1.212,0.972v-1.009l1.188-0.959h0.973v8.352H237.463z"/>
		<path d="M242.023,531.474v-7.355l-1.212,0.972v-1.009l1.188-0.959h0.973v8.352H242.023z"/>
		<path d="M246.416,531.558c-0.328,0-0.601-0.05-0.816-0.15c-0.216-0.1-0.39-0.235-0.521-0.408
			c-0.132-0.172-0.229-0.375-0.288-0.611c-0.061-0.236-0.095-0.49-0.103-0.762l0.948-0.133c0,0.177,0.008,0.336,0.024,0.48
			c0.016,0.145,0.052,0.268,0.107,0.372c0.057,0.104,0.137,0.187,0.24,0.246s0.248,0.09,0.432,0.09c0.208,0,0.38-0.065,0.517-0.198
			c0.136-0.132,0.212-0.361,0.228-0.689v-2.16c0-0.473-0.231-0.708-0.695-0.708c-0.185,0-0.341,0.042-0.469,0.126
			s-0.224,0.197-0.288,0.342h-0.827v-4.271h3.239v0.852h-2.399v2.52h0.06c0.12-0.119,0.269-0.209,0.444-0.27s0.355-0.09,0.54-0.09
			c0.472,0,0.81,0.132,1.014,0.396c0.204,0.264,0.306,0.588,0.306,0.971v2.257c0,0.319-0.044,0.594-0.132,0.821
			c-0.088,0.229-0.21,0.414-0.365,0.559c-0.156,0.145-0.337,0.25-0.54,0.318C246.866,531.523,246.647,531.558,246.416,531.558z"/>
	</g>
	
		<circle opacity="0.8" fill="#FFFFFF" stroke="#03468E" stroke-miterlimit="10" enable-background="new    " cx="501.64" cy="488.643" r="8.667"/>
	<g>
		<path d="M497.213,493.224v-7.355l-1.211,0.972v-1.009l1.188-0.959h0.973v8.352H497.213z"/>
		<path d="M501.773,493.224v-7.355l-1.213,0.972v-1.009l1.188-0.959h0.973v8.352H501.773z"/>
		<path d="M505.914,488.556c0.168-0.128,0.375-0.191,0.623-0.191c0.264,0,0.482,0.041,0.654,0.126
			c0.172,0.084,0.311,0.198,0.414,0.343s0.178,0.313,0.223,0.505c0.043,0.192,0.064,0.394,0.064,0.602v1.757
			c0,0.264-0.045,0.496-0.137,0.697s-0.217,0.369-0.373,0.506c-0.156,0.136-0.336,0.238-0.539,0.307
			c-0.205,0.067-0.418,0.102-0.643,0.102s-0.438-0.034-0.643-0.102c-0.203-0.068-0.383-0.17-0.539-0.307
			c-0.156-0.136-0.279-0.304-0.373-0.504c-0.092-0.199-0.137-0.432-0.137-0.695v-1.393c0-0.359,0.023-0.66,0.072-0.9
			c0.047-0.24,0.107-0.451,0.18-0.636l1.547-3.899h0.961l-1.393,3.647L505.914,488.556z M506.945,489.899
			c0-0.207-0.068-0.369-0.203-0.486c-0.137-0.115-0.313-0.174-0.529-0.174c-0.143,0-0.264,0.026-0.359,0.078
			c-0.096,0.053-0.174,0.12-0.234,0.204s-0.102,0.179-0.125,0.282c-0.025,0.104-0.037,0.208-0.037,0.313v1.655
			c0,0.208,0.07,0.37,0.211,0.486c0.139,0.116,0.318,0.174,0.533,0.174c0.217,0,0.395-0.058,0.535-0.174
			c0.139-0.116,0.209-0.278,0.209-0.486V489.899z"/>
	</g>
	
		<circle opacity="0.8" fill="#FFFFFF" stroke="#03468E" stroke-miterlimit="10" enable-background="new    " cx="215.89" cy="555.643" r="8.667"/>
	<g>
		<path d="M211.463,560.224v-7.355l-1.212,0.972v-1.009l1.188-0.959h0.973v8.352H211.463z"/>
		<path d="M216.023,560.224v-7.355l-1.212,0.972v-1.009l1.188-0.959h0.973v8.352H216.023z"/>
		<path d="M220.019,560.224h-0.912l2.101-7.5h-1.656v0.996h-0.828v-1.848h3.444v0.779L220.019,560.224z"/>
	</g>
	
		<circle opacity="0.8" fill="#FFFFFF" stroke="#03468E" stroke-miterlimit="10" enable-background="new    " cx="295.14" cy="555.393" r="8.667"/>
	<g>
		<path d="M290.713,559.974v-7.355l-1.211,0.972v-1.009l1.188-0.959h0.973v8.352H290.713z"/>
		<path d="M295.273,559.974v-7.355l-1.213,0.972v-1.009l1.188-0.959h0.973v8.352H295.273z"/>
		<path d="M301.393,554.286c0,0.304-0.059,0.563-0.18,0.779c-0.119,0.217-0.275,0.393-0.467,0.528
			c0.191,0.136,0.348,0.313,0.467,0.534c0.121,0.22,0.18,0.482,0.18,0.785v1.537c0,0.264-0.045,0.496-0.137,0.695
			c-0.092,0.2-0.217,0.368-0.373,0.504c-0.156,0.137-0.336,0.238-0.539,0.307c-0.205,0.067-0.418,0.102-0.643,0.102
			s-0.438-0.034-0.643-0.102c-0.203-0.068-0.383-0.17-0.539-0.307c-0.156-0.136-0.279-0.304-0.373-0.504
			c-0.092-0.199-0.137-0.432-0.137-0.695v-1.537c0-0.303,0.057-0.565,0.174-0.785c0.115-0.221,0.273-0.398,0.475-0.534
			c-0.201-0.136-0.359-0.312-0.475-0.528c-0.117-0.216-0.174-0.476-0.174-0.779v-1.104c0-0.265,0.045-0.498,0.137-0.702
			c0.094-0.204,0.217-0.373,0.373-0.51s0.336-0.24,0.539-0.313c0.205-0.072,0.418-0.107,0.643-0.107s0.438,0.035,0.643,0.107
			c0.203,0.072,0.383,0.176,0.539,0.313s0.281,0.306,0.373,0.51s0.137,0.438,0.137,0.702V554.286z M300.445,553.11
			c0-0.209-0.07-0.375-0.209-0.498c-0.141-0.125-0.318-0.187-0.535-0.187c-0.215,0-0.395,0.062-0.533,0.187
			c-0.141,0.123-0.211,0.289-0.211,0.498v1.367c0,0.208,0.07,0.376,0.211,0.504c0.139,0.129,0.318,0.192,0.533,0.192
			c0.217,0,0.395-0.063,0.535-0.192c0.139-0.128,0.209-0.296,0.209-0.504V553.11z M300.445,556.698c0-0.209-0.07-0.381-0.209-0.517
			c-0.141-0.136-0.318-0.204-0.535-0.204c-0.215,0-0.395,0.068-0.533,0.204c-0.141,0.136-0.211,0.308-0.211,0.517v1.823
			c0,0.208,0.07,0.37,0.211,0.486c0.139,0.116,0.318,0.174,0.533,0.174c0.217,0,0.395-0.058,0.535-0.174
			c0.139-0.116,0.209-0.278,0.209-0.486V556.698z"/>
	</g>
	
		<circle opacity="0.8" fill="#FFFFFF" stroke="#03468E" stroke-miterlimit="10" enable-background="new    " cx="444.89" cy="555.143" r="8.667"/>
	<g>
		<path d="M440.463,559.724v-7.355l-1.211,0.972v-1.009l1.188-0.959h0.973v8.352H440.463z"/>
		<path d="M445.023,559.724v-7.355l-1.213,0.972v-1.009l1.188-0.959h0.973v8.352H445.023z"/>
		<path d="M449.74,556.028c-0.168,0.127-0.377,0.191-0.625,0.191c-0.264,0-0.482-0.042-0.654-0.126s-0.311-0.198-0.414-0.343
			c-0.104-0.144-0.178-0.312-0.221-0.504c-0.045-0.191-0.066-0.391-0.066-0.6v-1.752c0-0.264,0.045-0.496,0.137-0.695
			c0.094-0.2,0.217-0.369,0.373-0.504c0.156-0.137,0.336-0.238,0.539-0.307c0.205-0.068,0.418-0.102,0.643-0.102
			c0.535,0,0.953,0.136,1.248,0.408c0.297,0.271,0.443,0.672,0.443,1.199v1.393c0,0.359-0.023,0.66-0.07,0.899
			c-0.049,0.24-0.109,0.452-0.182,0.636l-1.547,3.9h-0.961l1.393-3.66L449.74,556.028z M448.707,554.696
			c0,0.207,0.068,0.373,0.205,0.498c0.135,0.123,0.311,0.186,0.527,0.186c0.145,0,0.264-0.028,0.359-0.084
			c0.096-0.057,0.174-0.127,0.234-0.211s0.102-0.18,0.127-0.287c0.023-0.108,0.035-0.215,0.035-0.318v-1.656
			c0-0.207-0.07-0.369-0.209-0.486c-0.141-0.115-0.318-0.174-0.535-0.174c-0.215,0-0.395,0.059-0.533,0.174
			c-0.141,0.117-0.211,0.279-0.211,0.486V554.696z"/>
	</g>
	
		<circle opacity="0.8" fill="#FFFFFF" stroke="#03468E" stroke-miterlimit="10" enable-background="new    " cx="186.14" cy="578.393" r="8.667"/>
	<g>
		<path d="M181.713,582.974v-7.355l-1.212,0.972v-1.009l1.188-0.959h0.973v8.352H181.713z"/>
		<path d="M186.153,575.45c-0.272,0.008-0.466,0.121-0.582,0.342c-0.116,0.22-0.174,0.554-0.174,1.002v0.072l-0.948-0.168v-0.049
			c0-0.32,0.032-0.607,0.096-0.863c0.064-0.256,0.166-0.477,0.307-0.66c0.14-0.184,0.319-0.326,0.54-0.426
			c0.22-0.101,0.481-0.15,0.786-0.15c0.312,0,0.575,0.044,0.792,0.132c0.216,0.088,0.392,0.212,0.527,0.372s0.234,0.354,0.294,0.582
			c0.061,0.229,0.09,0.482,0.09,0.762c0,0.664-0.151,1.305-0.455,1.92l-1.872,3.78h2.268v0.876h-3.348v-0.828l2.172-4.332
			c0.111-0.216,0.182-0.443,0.21-0.684c0.027-0.24,0.042-0.48,0.042-0.721c0-0.111-0.008-0.226-0.024-0.342
			c-0.016-0.115-0.048-0.22-0.096-0.312c-0.048-0.093-0.122-0.166-0.222-0.222C186.455,575.478,186.321,575.45,186.153,575.45z"/>
		<path d="M192.393,581.45c0,0.264-0.046,0.496-0.138,0.695c-0.092,0.2-0.216,0.368-0.372,0.504
			c-0.156,0.137-0.336,0.238-0.54,0.307c-0.204,0.067-0.418,0.102-0.642,0.102c-0.225,0-0.438-0.034-0.643-0.102
			c-0.204-0.068-0.384-0.17-0.54-0.307c-0.155-0.136-0.279-0.304-0.372-0.504c-0.092-0.199-0.138-0.432-0.138-0.695v-5.269
			c0-0.265,0.046-0.498,0.138-0.702c0.093-0.204,0.217-0.373,0.372-0.51c0.156-0.137,0.336-0.24,0.54-0.313s0.418-0.107,0.643-0.107
			c0.496,0,0.901,0.14,1.218,0.42c0.315,0.28,0.474,0.684,0.474,1.212V581.45z M191.446,576.146c0-0.208-0.07-0.376-0.21-0.504
			c-0.141-0.128-0.318-0.191-0.534-0.191s-0.395,0.063-0.534,0.191c-0.141,0.128-0.21,0.296-0.21,0.504v5.34
			c0,0.209,0.069,0.377,0.21,0.504c0.14,0.129,0.318,0.192,0.534,0.192s0.394-0.063,0.534-0.192c0.14-0.127,0.21-0.295,0.21-0.504
			V576.146z"/>
	</g>
	
		<circle opacity="0.8" fill="#FFFFFF" stroke="#03468E" stroke-miterlimit="10" enable-background="new    " cx="325.39" cy="578.393" r="8.667"/>
	<g>
		<path d="M320.963,582.974v-7.355l-1.211,0.972v-1.009l1.188-0.959h0.973v8.352H320.963z"/>
		<path d="M325.402,575.45c-0.271,0.008-0.465,0.121-0.582,0.342c-0.115,0.22-0.174,0.554-0.174,1.002v0.072l-0.947-0.168v-0.049
			c0-0.32,0.031-0.607,0.096-0.863s0.166-0.477,0.307-0.66c0.139-0.184,0.318-0.326,0.539-0.426c0.221-0.101,0.482-0.15,0.787-0.15
			c0.311,0,0.574,0.044,0.791,0.132s0.393,0.212,0.527,0.372c0.137,0.16,0.234,0.354,0.295,0.582s0.09,0.482,0.09,0.762
			c0,0.664-0.152,1.305-0.455,1.92l-1.873,3.78h2.268v0.876h-3.348v-0.828l2.172-4.332c0.111-0.216,0.182-0.443,0.211-0.684
			c0.027-0.24,0.041-0.48,0.041-0.721c0-0.111-0.008-0.226-0.023-0.342c-0.016-0.115-0.049-0.22-0.096-0.312
			c-0.049-0.093-0.123-0.166-0.223-0.222C325.705,575.478,325.57,575.45,325.402,575.45z"/>
		<path d="M330.084,582.974v-7.355l-1.213,0.972v-1.009l1.188-0.959h0.973v8.352H330.084z"/>
	</g>
	
		<circle opacity="0.8" fill="#FFFFFF" stroke="#03468E" stroke-miterlimit="10" enable-background="new    " cx="256.14" cy="596.143" r="8.667"/>
	<g>
		<path d="M251.713,600.724v-7.355l-1.212,0.972v-1.009l1.188-0.959h0.973v8.352H251.713z"/>
		<path d="M256.153,593.2c-0.272,0.008-0.466,0.121-0.582,0.342c-0.116,0.22-0.174,0.554-0.174,1.002v0.072l-0.948-0.168v-0.049
			c0-0.32,0.032-0.607,0.096-0.863c0.064-0.256,0.166-0.477,0.307-0.66c0.14-0.184,0.319-0.326,0.54-0.426
			c0.22-0.101,0.481-0.15,0.786-0.15c0.312,0,0.575,0.044,0.792,0.132c0.216,0.088,0.392,0.212,0.527,0.372s0.234,0.354,0.294,0.582
			c0.061,0.229,0.09,0.482,0.09,0.762c0,0.664-0.151,1.305-0.455,1.92l-1.872,3.78h2.268v0.876h-3.348v-0.828l2.172-4.332
			c0.111-0.216,0.182-0.443,0.21-0.684c0.027-0.24,0.042-0.48,0.042-0.721c0-0.111-0.008-0.226-0.024-0.342
			c-0.016-0.115-0.048-0.22-0.096-0.312c-0.048-0.093-0.122-0.166-0.222-0.222C256.455,593.228,256.321,593.2,256.153,593.2z"/>
		<path d="M260.713,593.2c-0.271,0.008-0.465,0.121-0.582,0.342c-0.115,0.22-0.174,0.554-0.174,1.002v0.072l-0.948-0.168v-0.049
			c0-0.32,0.032-0.607,0.096-0.863c0.064-0.256,0.166-0.477,0.307-0.66c0.139-0.184,0.319-0.326,0.54-0.426
			c0.221-0.101,0.482-0.15,0.787-0.15c0.311,0,0.574,0.044,0.791,0.132s0.393,0.212,0.527,0.372c0.137,0.16,0.234,0.354,0.295,0.582
			s0.09,0.482,0.09,0.762c0,0.664-0.152,1.305-0.455,1.92l-1.873,3.78h2.268v0.876h-3.347v-0.828l2.171-4.332
			c0.111-0.216,0.182-0.443,0.211-0.684c0.027-0.24,0.041-0.48,0.041-0.721c0-0.111-0.008-0.226-0.023-0.342
			c-0.016-0.115-0.049-0.22-0.096-0.312c-0.049-0.093-0.123-0.166-0.223-0.222C261.016,593.228,260.881,593.2,260.713,593.2z"/>
	</g>
	
		<circle opacity="0.8" fill="#FFFFFF" stroke="#03468E" stroke-miterlimit="10" enable-background="new    " cx="186.14" cy="606.143" r="8.667"/>
	<g>
		<path d="M181.713,610.724v-7.355l-1.212,0.972v-1.009l1.188-0.959h0.973v8.352H181.713z"/>
		<path d="M186.153,603.2c-0.272,0.008-0.466,0.121-0.582,0.342c-0.116,0.22-0.174,0.554-0.174,1.002v0.072l-0.948-0.168v-0.049
			c0-0.32,0.032-0.607,0.096-0.863c0.064-0.256,0.166-0.477,0.307-0.66c0.14-0.184,0.319-0.326,0.54-0.426
			c0.22-0.101,0.481-0.15,0.786-0.15c0.312,0,0.575,0.044,0.792,0.132c0.216,0.088,0.392,0.212,0.527,0.372s0.234,0.354,0.294,0.582
			c0.061,0.229,0.09,0.482,0.09,0.762c0,0.664-0.151,1.305-0.455,1.92l-1.872,3.78h2.268v0.876h-3.348v-0.828l2.172-4.332
			c0.111-0.216,0.182-0.443,0.21-0.684c0.027-0.24,0.042-0.48,0.042-0.721c0-0.111-0.008-0.226-0.024-0.342
			c-0.016-0.115-0.048-0.22-0.096-0.312c-0.048-0.093-0.122-0.166-0.222-0.222C186.455,603.228,186.321,603.2,186.153,603.2z"/>
		<path d="M192.37,609.008c0,0.319-0.048,0.594-0.145,0.821c-0.096,0.229-0.222,0.414-0.378,0.559s-0.336,0.25-0.54,0.318
			c-0.204,0.067-0.422,0.102-0.653,0.102c-0.328,0-0.603-0.048-0.822-0.145c-0.221-0.096-0.396-0.228-0.528-0.396
			s-0.222-0.37-0.27-0.606c-0.048-0.235-0.064-0.498-0.048-0.785l0.947-0.133c-0.04,0.36-0.002,0.648,0.114,0.864
			s0.326,0.324,0.63,0.324c0.208,0,0.386-0.065,0.534-0.198c0.147-0.132,0.222-0.361,0.222-0.689v-1.26
			c0-0.336-0.065-0.578-0.197-0.727c-0.133-0.148-0.351-0.223-0.654-0.223h-0.372v-0.827h0.396c0.296,0,0.509-0.067,0.637-0.204
			s0.191-0.364,0.191-0.684v-1.068c0-0.104-0.01-0.208-0.029-0.313c-0.021-0.104-0.055-0.195-0.103-0.275s-0.116-0.145-0.204-0.192
			s-0.204-0.071-0.348-0.071c-0.28,0-0.486,0.105-0.618,0.317s-0.198,0.494-0.198,0.847l-0.947-0.133
			c0.008-0.271,0.052-0.525,0.132-0.762c0.079-0.236,0.193-0.439,0.342-0.612c0.147-0.172,0.334-0.308,0.558-0.407
			c0.225-0.101,0.488-0.15,0.792-0.15c0.296,0,0.544,0.046,0.744,0.138c0.2,0.093,0.362,0.216,0.486,0.372s0.212,0.338,0.264,0.546
			s0.078,0.425,0.078,0.647v0.853c0,0.16-0.006,0.314-0.018,0.462c-0.013,0.148-0.04,0.286-0.084,0.414
			c-0.045,0.129-0.112,0.246-0.204,0.354c-0.093,0.109-0.223,0.207-0.391,0.295v0.035c0.16,0.072,0.286,0.154,0.378,0.246
			c0.092,0.093,0.162,0.201,0.21,0.324c0.049,0.125,0.078,0.264,0.091,0.42c0.012,0.156,0.018,0.33,0.018,0.522L192.37,609.008z"/>
	</g>
	
		<circle opacity="0.8" fill="#FFFFFF" stroke="#03468E" stroke-miterlimit="10" enable-background="new    " cx="213.14" cy="605.893" r="8.667"/>
	<g>
		<path d="M208.713,610.474v-7.355l-1.212,0.972v-1.009l1.188-0.959h0.973v8.352H208.713z"/>
		<path d="M213.153,602.95c-0.272,0.008-0.466,0.121-0.582,0.342c-0.116,0.22-0.174,0.554-0.174,1.002v0.072l-0.948-0.168v-0.049
			c0-0.32,0.032-0.607,0.096-0.863c0.064-0.256,0.166-0.477,0.307-0.66c0.14-0.184,0.319-0.326,0.54-0.426
			c0.22-0.101,0.481-0.15,0.786-0.15c0.312,0,0.575,0.044,0.792,0.132c0.216,0.088,0.392,0.212,0.527,0.372s0.234,0.354,0.294,0.582
			c0.061,0.229,0.09,0.482,0.09,0.762c0,0.664-0.151,1.305-0.455,1.92l-1.872,3.78h2.268v0.876h-3.348v-0.828l2.172-4.332
			c0.111-0.216,0.182-0.443,0.21-0.684c0.027-0.24,0.042-0.48,0.042-0.721c0-0.111-0.008-0.226-0.024-0.342
			c-0.016-0.115-0.048-0.22-0.096-0.312c-0.048-0.093-0.122-0.166-0.222-0.222C213.455,602.978,213.321,602.95,213.153,602.95z"/>
		<path d="M219.105,609.153v1.32h-0.947v-1.32h-2.46v-0.852l1.752-6.18h0.936l-1.764,6.18h1.536v-2.316h0.947v2.316h0.589v0.852
			H219.105z"/>
	</g>
	
		<circle opacity="0.8" fill="#FFFFFF" stroke="#03468E" stroke-miterlimit="10" enable-background="new    " cx="299.14" cy="606.143" r="8.667"/>
	<g>
		<path d="M294.713,610.724v-7.355l-1.211,0.972v-1.009l1.188-0.959h0.973v8.352H294.713z"/>
		<path d="M299.152,603.2c-0.271,0.008-0.465,0.121-0.582,0.342c-0.115,0.22-0.174,0.554-0.174,1.002v0.072l-0.947-0.168v-0.049
			c0-0.32,0.031-0.607,0.096-0.863s0.166-0.477,0.307-0.66c0.139-0.184,0.318-0.326,0.539-0.426c0.221-0.101,0.482-0.15,0.787-0.15
			c0.311,0,0.574,0.044,0.791,0.132s0.393,0.212,0.527,0.372c0.137,0.16,0.234,0.354,0.295,0.582s0.09,0.482,0.09,0.762
			c0,0.664-0.152,1.305-0.455,1.92l-1.873,3.78h2.268v0.876h-3.348v-0.828l2.172-4.332c0.111-0.216,0.182-0.443,0.211-0.684
			c0.027-0.24,0.041-0.48,0.041-0.721c0-0.111-0.008-0.226-0.023-0.342c-0.016-0.115-0.049-0.22-0.096-0.312
			c-0.049-0.093-0.123-0.166-0.223-0.222C299.455,603.228,299.32,603.2,299.152,603.2z"/>
		<path d="M303.666,610.808c-0.328,0-0.602-0.05-0.816-0.15c-0.217-0.1-0.391-0.235-0.521-0.408
			c-0.133-0.172-0.229-0.375-0.289-0.611s-0.094-0.49-0.102-0.762l0.947-0.133c0,0.177,0.008,0.336,0.025,0.48
			c0.016,0.145,0.051,0.268,0.107,0.372s0.137,0.187,0.24,0.246s0.248,0.09,0.432,0.09c0.207,0,0.379-0.065,0.516-0.198
			c0.137-0.132,0.213-0.361,0.229-0.689v-2.16c0-0.473-0.232-0.708-0.695-0.708c-0.186,0-0.342,0.042-0.469,0.126
			c-0.129,0.084-0.225,0.197-0.289,0.342h-0.826v-4.271h3.238v0.852h-2.398v2.52h0.059c0.121-0.119,0.27-0.209,0.445-0.27
			s0.355-0.09,0.539-0.09c0.473,0,0.811,0.132,1.014,0.396c0.205,0.264,0.307,0.588,0.307,0.971v2.257
			c0,0.319-0.045,0.594-0.133,0.821c-0.088,0.229-0.209,0.414-0.365,0.559s-0.336,0.25-0.539,0.318
			C304.115,610.773,303.896,610.808,303.666,610.808z"/>
	</g>
	
		<circle opacity="0.8" fill="#FFFFFF" stroke="#03468E" stroke-miterlimit="10" enable-background="new    " cx="325.14" cy="605.893" r="8.667"/>
	<g>
		<path d="M320.713,610.474v-7.355l-1.211,0.972v-1.009l1.188-0.959h0.973v8.352H320.713z"/>
		<path d="M325.152,602.95c-0.271,0.008-0.465,0.121-0.582,0.342c-0.115,0.22-0.174,0.554-0.174,1.002v0.072l-0.947-0.168v-0.049
			c0-0.32,0.031-0.607,0.096-0.863s0.166-0.477,0.307-0.66c0.139-0.184,0.318-0.326,0.539-0.426c0.221-0.101,0.482-0.15,0.787-0.15
			c0.311,0,0.574,0.044,0.791,0.132s0.393,0.212,0.527,0.372c0.137,0.16,0.234,0.354,0.295,0.582s0.09,0.482,0.09,0.762
			c0,0.664-0.152,1.305-0.455,1.92l-1.873,3.78h2.268v0.876h-3.348v-0.828l2.172-4.332c0.111-0.216,0.182-0.443,0.211-0.684
			c0.027-0.24,0.041-0.48,0.041-0.721c0-0.111-0.008-0.226-0.023-0.342c-0.016-0.115-0.049-0.22-0.096-0.312
			c-0.049-0.093-0.123-0.166-0.223-0.222C325.455,602.978,325.32,602.95,325.152,602.95z"/>
		<path d="M329.414,605.806c0.168-0.128,0.375-0.191,0.623-0.191c0.264,0,0.482,0.041,0.654,0.126
			c0.172,0.084,0.311,0.198,0.414,0.343s0.178,0.313,0.223,0.505c0.043,0.192,0.064,0.394,0.064,0.602v1.757
			c0,0.264-0.045,0.496-0.137,0.697s-0.217,0.369-0.373,0.506c-0.156,0.136-0.336,0.238-0.539,0.307
			c-0.205,0.067-0.418,0.102-0.643,0.102s-0.438-0.034-0.643-0.102c-0.203-0.068-0.383-0.17-0.539-0.307
			c-0.156-0.136-0.279-0.304-0.373-0.504c-0.092-0.199-0.137-0.432-0.137-0.695v-1.393c0-0.359,0.023-0.66,0.072-0.9
			c0.047-0.24,0.107-0.451,0.18-0.636l1.547-3.899h0.961l-1.393,3.647L329.414,605.806z M330.445,607.149
			c0-0.207-0.068-0.369-0.203-0.486c-0.137-0.115-0.313-0.174-0.529-0.174c-0.143,0-0.264,0.026-0.359,0.078
			c-0.096,0.053-0.174,0.12-0.234,0.204s-0.102,0.179-0.125,0.282c-0.025,0.104-0.037,0.208-0.037,0.313v1.655
			c0,0.208,0.07,0.37,0.211,0.486c0.139,0.116,0.318,0.174,0.533,0.174c0.217,0,0.395-0.058,0.535-0.174
			c0.139-0.116,0.209-0.278,0.209-0.486V607.149z"/>
	</g>
</g>
</svg>
